<svg width="37" height="37" viewBox="0 0 37 37" fill="none" xmlns="http://www.w3.org/2000/svg">
    <path fill-rule="evenodd" clip-rule="evenodd"
          d="M9.04011 9.77677e-06L27.535 0.0269682C32.5055 0.0342124 36.5291 4.06952 36.5219 9.04008L36.5162 12.8951H33.5162L33.5219 9.0357C33.5267 5.722 30.8443 3.03179 27.5306 3.02696L9.03575 3.00001C5.72203 2.99518 3.03181 5.67755 3.02699 8.99126L3.00001 27.4646C2.99519 30.7783 5.67756 33.4685 8.99125 33.4733L27.4861 33.5003C30.7998 33.5051 33.4901 30.8227 33.4949 27.509L33.5007 23.5608H36.5007L36.4949 27.5134C36.4876 32.484 32.4523 36.5075 27.4818 36.5003L8.98689 36.4733C4.01634 36.4661 -0.00722293 32.4308 9.7357e-06 27.4602L0.0269873 8.98688C0.0342505 4.01633 4.06956 -0.00723815 9.04011 9.77677e-06ZM18 18C19.8266 18 21.4626 17.1838 22.563 15.8962C23.459 14.8479 24 13.4871 24 12C24 8.68629 21.3137 6 18 6C14.6863 6 12 8.68629 12 12C12 13.4497 12.5142 14.7794 13.3701 15.8166L13.3933 15.8444L13.4066 15.8603C13.4167 15.8723 13.4268 15.8843 13.437 15.8962C14.5375 17.1838 16.1734 18 18 18ZM9.02625 21C9.22566 19.1069 10.5479 17.4404 12.5132 16.3472C13.7954 17.9634 15.7767 19 18 19C20.2234 19 22.2046 17.9634 23.4869 16.3472C25.4521 17.4404 26.7744 19.1069 26.9738 21H27V21.0224C26.8353 21.0076 26.6686 21 26.5 21C23.4624 21 21 23.4624 21 26.5C21 27.02 21.0722 27.5232 21.207 28H18H9.00001V21.5V21H9.02625ZM32 27C32 29.7614 29.7614 32 27 32C24.2386 32 22 29.7614 22 27C22 24.2386 24.2386 22 27 22C29.7614 22 32 24.2386 32 27ZM24 28H26V30H28V28H30V26H28V24H26V26H24V28Z"
          fill="#fff"/>
</svg>
