<svg width="38" height="33" viewBox="0 0 38 33" fill="none" xmlns="http://www.w3.org/2000/svg">
    <g filter="url(#filter0_d_106_2)">
        <mask id="path-1-inside-1_106_2" fill="white">
            <path fill-rule="evenodd" clip-rule="evenodd" d="M3.25804 0.897987C3.58352 0.743486 4.12279 0.883199 5.20135 1.16263L28.4405 7.18335C29.2593 7.39548 29.6687 7.50154 29.8735 7.7423C30.0447 7.94366 30.1299 8.20489 30.1104 8.46897C30.0871 8.7847 29.8195 9.11334 29.2842 9.77061L25.3058 14.6557L34.8511 22.6074C35.2754 22.9609 35.3328 23.5915 34.9793 24.0158L31.883 27.7327C31.5295 28.157 30.8989 28.2144 30.4746 27.8609L20.9877 19.9578L16.4882 25.4827C15.953 26.14 15.6853 26.4687 15.3822 26.5538C15.1286 26.625 14.8572 26.5924 14.6272 26.4632C14.3522 26.3086 14.1683 25.9258 13.8003 25.1601L3.35707 3.42721C2.87239 2.41857 2.63005 1.91425 2.71658 1.56286C2.78854 1.2706 2.98734 1.02649 3.25804 0.897987Z"/>
        </mask>
        <path fill-rule="evenodd" clip-rule="evenodd" d="M3.25804 0.897987C3.58352 0.743486 4.12279 0.883199 5.20135 1.16263L28.4405 7.18335C29.2593 7.39548 29.6687 7.50154 29.8735 7.7423C30.0447 7.94366 30.1299 8.20489 30.1104 8.46897C30.0871 8.7847 29.8195 9.11334 29.2842 9.77061L25.3058 14.6557L34.8511 22.6074C35.2754 22.9609 35.3328 23.5915 34.9793 24.0158L31.883 27.7327C31.5295 28.157 30.8989 28.2144 30.4746 27.8609L20.9877 19.9578L16.4882 25.4827C15.953 26.14 15.6853 26.4687 15.3822 26.5538C15.1286 26.625 14.8572 26.5924 14.6272 26.4632C14.3522 26.3086 14.1683 25.9258 13.8003 25.1601L3.35707 3.42721C2.87239 2.41857 2.63005 1.91425 2.71658 1.56286C2.78854 1.2706 2.98734 1.02649 3.25804 0.897987Z" fill="#505160"/>
        <path d="M5.20135 1.16263L5.45214 0.194586L5.20135 1.16263ZM3.25804 0.897987L3.68688 1.80137L3.68687 1.80137L3.25804 0.897987ZM28.4405 7.18335L28.1898 8.15139L28.4405 7.18335ZM29.8735 7.7423L29.1117 8.39017L29.1117 8.39017L29.8735 7.7423ZM30.1104 8.46897L29.1131 8.39535L29.1131 8.39535L30.1104 8.46897ZM29.2842 9.77061L28.5088 9.13914L28.5088 9.13913L29.2842 9.77061ZM25.3058 14.6557L24.6657 15.424L23.9059 14.791L24.5304 14.0242L25.3058 14.6557ZM20.9877 19.9578L20.2123 19.3263L20.8509 18.5423L21.6278 19.1895L20.9877 19.9578ZM16.4882 25.4827L17.2636 26.1142L16.4882 25.4827ZM15.3822 26.5538L15.6525 27.5166L15.6525 27.5166L15.3822 26.5538ZM14.6272 26.4632L15.1172 25.5914L15.1172 25.5914L14.6272 26.4632ZM13.8003 25.1601L12.899 25.5932L13.8003 25.1601ZM3.35707 3.42721L2.45574 3.86033L3.35707 3.42721ZM2.71658 1.56286L3.68757 1.80195L3.68757 1.80195L2.71658 1.56286ZM4.95055 2.13067C4.39155 1.98584 4.04036 1.89592 3.78653 1.85458C3.5111 1.80972 3.55765 1.86271 3.68688 1.80137L2.82921 -0.00539717C3.28391 -0.221239 3.76284 -0.175638 4.10805 -0.119409C4.47487 -0.0596622 4.93259 0.0599833 5.45214 0.194586L4.95055 2.13067ZM28.1898 8.15139L4.95055 2.13067L5.45214 0.194586L28.6913 6.21531L28.1898 8.15139ZM29.1117 8.39017C29.1789 8.4692 29.2232 8.45601 29.0477 8.39269C28.8716 8.32912 28.6183 8.26242 28.1898 8.15139L28.6913 6.21531C29.0816 6.31641 29.4423 6.40881 29.7268 6.51149C30.0119 6.61442 30.3632 6.77464 30.6352 7.09442L29.1117 8.39017ZM29.1131 8.39535C29.1133 8.39288 29.1124 8.39096 29.1117 8.39017L30.6352 7.09442C30.9771 7.49637 31.1465 8.0169 31.1077 8.54259L29.1131 8.39535ZM28.5088 9.13913C28.7889 8.79522 28.9541 8.59071 29.0589 8.43454C29.1633 8.2789 29.1207 8.29328 29.1131 8.39535L31.1077 8.54258C31.0769 8.96038 30.8887 9.29695 30.7197 9.54889C30.551 9.80028 30.3148 10.0887 30.0596 10.4021L28.5088 9.13913ZM24.5304 14.0242L28.5088 9.13914L30.0596 10.4021L26.0812 15.2872L24.5304 14.0242ZM34.211 23.3757L24.6657 15.424L25.9459 13.8873L35.4911 21.8391L34.211 23.3757ZM34.211 23.3757L35.4911 21.8391C36.3398 22.5461 36.4547 23.8072 35.7477 24.6559L34.211 23.3757ZM31.1147 27.0926L34.211 23.3757L35.7477 24.6559L32.6513 28.3727L31.1147 27.0926ZM31.1147 27.0926L32.6513 28.3727C31.9443 29.2214 30.6832 29.3362 29.8345 28.6292L31.1147 27.0926ZM21.6278 19.1895L31.1147 27.0926L29.8345 28.6292L20.3477 20.7262L21.6278 19.1895ZM15.7129 24.8513L20.2123 19.3263L21.7631 20.5893L17.2636 26.1142L15.7129 24.8513ZM15.1118 25.591C15.0101 25.6196 15.0029 25.6664 15.1345 25.5324C15.266 25.3984 15.4327 25.1952 15.7129 24.8513L17.2636 26.1142C17.0085 26.4275 16.7738 26.7174 16.5619 26.9333C16.3499 27.1492 16.0574 27.4028 15.6525 27.5166L15.1118 25.591ZM15.1172 25.5914C15.1163 25.5909 15.1142 25.5904 15.1118 25.591L15.6525 27.5166C15.143 27.6596 14.5981 27.5939 14.1373 27.3349L15.1172 25.5914ZM14.7017 24.7269C14.8941 25.1275 15.0093 25.3648 15.1063 25.5266C15.2033 25.6884 15.208 25.6425 15.1172 25.5914L14.1373 27.3349C13.7714 27.1293 13.5467 26.8147 13.391 26.555C13.2352 26.2953 13.0744 25.9583 12.899 25.5932L14.7017 24.7269ZM4.25841 2.99409L14.7017 24.727L12.899 25.5932L2.45574 3.86033L4.25841 2.99409ZM3.68757 1.80195C3.72072 1.66734 3.66154 1.63608 3.75965 1.89932C3.8502 2.14227 4.00733 2.47159 4.25841 2.99409L2.45574 3.86033C2.22213 3.37419 2.01575 2.94703 1.88559 2.59781C1.76299 2.26888 1.62591 1.80977 1.74558 1.32377L3.68757 1.80195ZM3.68687 1.80137L3.68757 1.80195L1.74558 1.32377C1.88897 0.741418 2.2858 0.252558 2.82921 -0.00539693L3.68687 1.80137Z" fill="#505160" mask="url(#path-1-inside-1_106_2)"/>
    </g>
    <defs>
        <filter id="filter0_d_106_2" x="0.699219" y="0.834015" width="36.5117" height="31.2586" filterUnits="userSpaceOnUse" color-interpolation-filters="sRGB">
            <feFlood flood-opacity="0" result="BackgroundImageFix"/>
            <feColorMatrix in="SourceAlpha" type="matrix" values="0 0 0 0 0 0 0 0 0 0 0 0 0 0 0 0 0 0 127 0" result="hardAlpha"/>
            <feOffset dy="2"/>
            <feGaussianBlur stdDeviation="1"/>
            <feComposite in2="hardAlpha" operator="out"/>
            <feColorMatrix type="matrix" values="0 0 0 0 0 0 0 0 0 0 0 0 0 0 0 0 0 0 0.3 0"/>
            <feBlend mode="normal" in2="BackgroundImageFix" result="effect1_dropShadow_106_2"/>
            <feBlend mode="normal" in="SourceGraphic" in2="effect1_dropShadow_106_2" result="shape"/>
        </filter>
    </defs>
</svg>
