<svg width="30" height="44" viewBox="0 0 30 44" fill="none" xmlns="http://www.w3.org/2000/svg">
    <g filter="url(#filter0_d_106_2)">
        <mask id="path-1-inside-1_106_2" fill="white">
            <path fill-rule="evenodd" clip-rule="evenodd"
                  d="M14.6748 39.1691C14.3478 39.0179 14.11 38.5141 13.6343 37.5066L3.38576 15.7977C3.02468 15.0328 2.84414 14.6504 2.89805 14.339C2.94315 14.0785 3.08934 13.8458 3.30471 13.6918C3.56221 13.5076 3.98602 13.5029 4.83364 13.4935L11.1334 13.4235L11.1334 1C11.1334 0.447715 11.5811 0 12.1334 0L16.971 0C17.5232 0 17.971 0.447715 17.971 1V13.3475L25.0958 13.2683C25.9435 13.2588 26.3673 13.2541 26.6267 13.4326C26.8437 13.5818 26.9924 13.8112 27.0403 14.0706C27.0976 14.3808 26.9211 14.7672 26.5683 15.54L16.5547 37.4741C16.09 38.4921 15.8576 39.0011 15.5322 39.1595C15.2616 39.2913 14.9468 39.2948 14.6748 39.1691Z"/>
        </mask>
        <path fill-rule="evenodd" clip-rule="evenodd"
              d="M14.6748 39.1691C14.3478 39.0179 14.11 38.5141 13.6343 37.5066L3.38576 15.7977C3.02468 15.0328 2.84414 14.6504 2.89805 14.339C2.94315 14.0785 3.08934 13.8458 3.30471 13.6918C3.56221 13.5076 3.98602 13.5029 4.83364 13.4935L11.1334 13.4235L11.1334 1C11.1334 0.447715 11.5811 0 12.1334 0L16.971 0C17.5232 0 17.971 0.447715 17.971 1V13.3475L25.0958 13.2683C25.9435 13.2588 26.3673 13.2541 26.6267 13.4326C26.8437 13.5818 26.9924 13.8112 27.0403 14.0706C27.0976 14.3808 26.9211 14.7672 26.5683 15.54L16.5547 37.4741C16.09 38.4921 15.8576 39.0011 15.5322 39.1595C15.2616 39.2913 14.9468 39.2948 14.6748 39.1691Z"
              fill="#505160"/>
        <path d="M13.6343 37.5066L12.73 37.9335L12.73 37.9335L13.6343 37.5066ZM14.6748 39.1691L15.0945 38.2614L15.0945 38.2614L14.6748 39.1691ZM3.38576 15.7977L4.29006 15.3708L4.29006 15.3708L3.38576 15.7977ZM2.89805 14.339L3.8834 14.5096L3.8834 14.5096L2.89805 14.339ZM3.30471 13.6918L3.88647 14.5052L3.88647 14.5052L3.30471 13.6918ZM4.83364 13.4935L4.84475 14.4934L4.84475 14.4934L4.83364 13.4935ZM11.1334 13.4235H12.1334V14.4124L11.1445 14.4234L11.1334 13.4235ZM17.971 13.3475L17.9821 14.3474L16.971 14.3586V13.3475H17.971ZM25.0958 13.2683L25.0847 12.2683L25.0847 12.2683L25.0958 13.2683ZM26.6267 13.4326L27.1934 12.6086L27.1934 12.6086L26.6267 13.4326ZM27.0403 14.0706L26.0569 14.2521L26.0569 14.2521L27.0403 14.0706ZM26.5683 15.54L27.478 15.9553L27.478 15.9553L26.5683 15.54ZM16.5547 37.4741L17.4644 37.8894L17.4644 37.8894L16.5547 37.4741ZM15.5322 39.1595L15.0945 38.2604L15.0945 38.2604L15.5322 39.1595ZM14.5386 37.0797C14.7852 37.6019 14.9409 37.9292 15.0716 38.1507C15.2134 38.3911 15.2243 38.3214 15.0945 38.2614L14.2552 40.0768C13.7984 39.8656 13.5268 39.4684 13.3491 39.1672C13.1602 38.8471 12.9592 38.4188 12.73 37.9335L14.5386 37.0797ZM4.29006 15.3708L14.5386 37.0797L12.73 37.9335L2.48147 16.2246L4.29006 15.3708ZM3.8834 14.5096C3.90109 14.4073 3.86265 14.3818 3.92628 14.5571C3.99016 14.7331 4.10107 14.9704 4.29006 15.3708L2.48147 16.2246C2.30938 15.8601 2.14947 15.5238 2.04629 15.2395C1.94285 14.9545 1.8411 14.582 1.91271 14.1684L3.8834 14.5096ZM3.88647 14.5052C3.88446 14.5066 3.88357 14.5085 3.8834 14.5096L1.91271 14.1684C2.00273 13.6484 2.29422 13.1851 2.72295 12.8784L3.88647 14.5052ZM4.84475 14.4934C4.40125 14.4984 4.13836 14.5023 3.95129 14.5217C3.76487 14.5411 3.80323 14.5647 3.88647 14.5052L2.72295 12.8784C3.0637 12.6347 3.44271 12.5638 3.74447 12.5325C4.04559 12.5012 4.41841 12.498 4.82252 12.4935L4.84475 14.4934ZM11.1445 14.4234L4.84475 14.4934L4.82252 12.4935L11.1222 12.4235L11.1445 14.4234ZM12.1334 1L12.1334 13.4235H10.1334V1L12.1334 1ZM12.1334 1L10.1334 1C10.1334 -0.104569 11.0288 -1 12.1334 -1V1ZM16.971 1L12.1334 1V-1L16.971 -1V1ZM16.971 1V-1C18.0755 -1 18.971 -0.104569 18.971 1L16.971 1ZM16.971 13.3475L16.971 1L18.971 1V13.3475H16.971ZM25.107 14.2682L17.9821 14.3474L17.9598 12.3475L25.0847 12.2683L25.107 14.2682ZM26.0601 14.2565C26.1471 14.3164 26.1876 14.2919 26.0005 14.2766C25.8133 14.2614 25.5505 14.2633 25.1069 14.2682L25.0847 12.2683C25.4888 12.2638 25.8617 12.2587 26.1632 12.2833C26.4647 12.3079 26.8469 12.3703 27.1934 12.6086L26.0601 14.2565ZM26.0569 14.2521C26.0571 14.2532 26.058 14.2551 26.0601 14.2565L27.1934 12.6086C27.6294 12.9085 27.9277 13.3692 28.0237 13.8891L26.0569 14.2521ZM25.6587 15.1247C25.8432 14.7204 25.9519 14.48 26.014 14.302C26.0763 14.1239 26.038 14.1496 26.0569 14.2521L28.0237 13.8891C28.0999 14.3018 28.002 14.6758 27.9021 14.9616C27.8022 15.2476 27.6463 15.5868 27.478 15.9553L25.6587 15.1247ZM15.645 37.0588L25.6587 15.1247L27.478 15.9553L17.4644 37.8894L15.645 37.0588ZM15.0945 38.2604C14.9698 38.3211 14.9837 38.3866 15.1231 38.1427C15.2518 37.9177 15.4043 37.5862 15.645 37.0588L17.4644 37.8894C17.2404 38.3801 17.0443 38.812 16.8593 39.1356C16.6851 39.4403 16.42 39.8395 15.97 40.0586L15.0945 38.2604ZM15.0945 38.2614L15.0945 38.2604L15.97 40.0586C15.4308 40.3212 14.8012 40.3292 14.2552 40.0768L15.0945 38.2614Z"
              fill="#505160" mask="url(#path-1-inside-1_106_2)"/>
    </g>
    <defs>
        <filter id="filter0_d_106_2" x="0.888672" y="0" width="28.1624" height="43.2609" filterUnits="userSpaceOnUse"
                color-interpolation-filters="sRGB">
            <feFlood flood-opacity="0" result="BackgroundImageFix"/>
            <feColorMatrix in="SourceAlpha" type="matrix" values="0 0 0 0 0 0 0 0 0 0 0 0 0 0 0 0 0 0 127 0"
                           result="hardAlpha"/>
            <feOffset dy="2"/>
            <feGaussianBlur stdDeviation="1"/>
            <feComposite in2="hardAlpha" operator="out"/>
            <feColorMatrix type="matrix" values="0 0 0 0 0 0 0 0 0 0 0 0 0 0 0 0 0 0 0.3 0"/>
            <feBlend mode="normal" in2="BackgroundImageFix" result="effect1_dropShadow_106_2"/>
            <feBlend mode="normal" in="SourceGraphic" in2="effect1_dropShadow_106_2" result="shape"/>
        </filter>
    </defs>
</svg>
