<svg width="37" height="37" viewBox="0 0 37 37" fill="none" xmlns="http://www.w3.org/2000/svg">
    <path fill-rule="evenodd" clip-rule="evenodd"
          d="M9.04011 1.18967e-05L27.535 0.026971C32.5055 0.0342164 36.5291 4.06952 36.5219 9.04008L36.5162 12.8951H33.5162L33.5219 9.03571C33.5267 5.722 30.8443 3.0318 27.5306 3.02697L9.03573 3.00001C5.72203 2.99518 3.03182 5.67756 3.02698 8.99126L3.00002 27.4646C2.99518 30.7783 5.67755 33.4685 8.99126 33.4733L27.4861 33.5003C30.7998 33.5051 33.4901 30.8227 33.4949 27.509L33.5007 23.5608H36.5007L36.4949 27.5134C36.4876 32.484 32.4523 36.5075 27.4818 36.5003L8.98688 36.4733C4.01632 36.4661 -0.007236 32.4308 1.96155e-05 27.4602L0.0269854 8.98689C0.0342411 4.01633 4.06955 -0.00723346 9.04011 1.18967e-05ZM30.9426 11.9231C30.9426 13.5374 29.721 14.8462 28.2139 14.8462C26.7069 14.8462 25.4852 13.5374 25.4852 11.9231C25.4852 10.3087 26.7069 9 28.2139 9C29.721 9 30.9426 10.3087 30.9426 11.9231ZM30.9426 25.0769C30.9426 26.6913 29.7209 28 28.2139 28C26.7069 28 25.4852 26.6913 25.4852 25.0769C25.4852 23.4626 26.7069 22.1538 28.2139 22.1538C29.7209 22.1538 30.9426 23.4626 30.9426 25.0769ZM28.2139 21.4231C29.7209 21.4231 30.9426 20.1144 30.9426 18.5C30.9426 16.8856 29.7209 15.5769 28.2139 15.5769C26.7069 15.5769 25.4852 16.8856 25.4852 18.5C25.4852 20.1144 26.7069 21.4231 28.2139 21.4231ZM6.08702 17.8785C6.22981 17.5596 6.69166 17.3228 7.61535 16.8492L14.9722 13.0774L14.9722 13.0774C15.7491 12.6791 16.1376 12.48 16.4554 12.5275C16.7211 12.5673 16.9601 12.7121 17.1186 12.9295C17.3083 13.1895 17.3128 13.6268 17.3218 14.5013L17.3403 16.3093H22.5366C23.0889 16.3093 23.5366 16.757 23.5366 17.3093V18.737C23.5366 19.2893 23.0889 19.737 22.5366 19.737H17.3753L17.3981 21.9584C17.407 22.833 17.4115 23.2703 17.2272 23.5324C17.0731 23.7516 16.8371 23.8992 16.5723 23.9421C16.2554 23.9934 15.8629 23.7988 15.078 23.4096L7.64478 19.7243C6.7115 19.2616 6.24486 19.0302 6.09557 18.713C5.97121 18.4488 5.96809 18.1441 6.08702 17.8785Z"
          fill="#505160"/>
</svg>
