<svg width="46" height="46" viewBox="0 0 46 46" fill="none" xmlns="http://www.w3.org/2000/svg">
	<g filter="url(#filter0_d_6_86)">
		<path fill-rule="evenodd" clip-rule="evenodd" d="M10.0504 9.78223e-06L35.6067 0.0372858C40.5772 0.0445357 44.6008 4.07984 44.5936 9.0504L44.5846 15.1962H41.5846L41.5936 9.04603C41.5984 5.73232 38.916 3.04212 35.6023 3.03728L10.046 3.00001C6.73233 2.99517 4.04212 5.67755 4.03728 8.99126L4.00001 34.5449C3.99517 37.8586 6.67755 40.5488 9.99125 40.5536L35.5475 40.5909C38.8612 40.5957 41.5515 37.9133 41.5563 34.5996L41.5654 28.34H44.5654L44.5563 34.604C44.549 39.5746 40.5137 43.5981 35.5432 43.5909L9.98688 43.5536C5.01632 43.5464 0.992759 39.511 1.00001 34.5405L1.03729 8.98688C1.04454 4.01633 5.07984 -0.00724017 10.0504 9.78223e-06ZM31.9114 30.6077C35.9535 27.9642 38.5845 23.6576 38.5845 18.7938C38.5845 10.7543 31.3959 4.23691 22.5283 4.23691C13.6608 4.23691 6.47218 10.7543 6.47218 18.7938C6.47218 26.375 12.8645 32.6027 21.0291 33.2881V37.6626L20.5469 38.0307C20.5508 38.0778 20.551 38.1198 20.5503 38.1533L21.1628 38.8128L31.9114 30.6077ZM20.7102 20.1041V19.989C20.7229 18.7681 20.8508 17.7965 21.0937 17.0742C21.3366 16.3519 21.6818 15.7671 22.1292 15.3196C22.5766 14.8722 23.1136 14.4599 23.74 14.0828C24.1171 13.8526 24.4559 13.581 24.7563 13.2678C25.0568 12.9482 25.2933 12.5806 25.4658 12.1651C25.6448 11.7497 25.7343 11.2894 25.7343 10.7845C25.7343 10.158 25.5873 9.61472 25.2933 9.15449C24.9992 8.69426 24.6061 8.33951 24.1139 8.09022C23.6217 7.84093 23.0752 7.71628 22.4744 7.71628C21.9502 7.71628 21.4453 7.82495 20.9595 8.04228C20.4737 8.25961 20.0678 8.60158 19.7418 9.0682C19.4158 9.53482 19.2272 10.1453 19.1761 10.8995H16.7599C16.811 9.81287 17.0923 8.88283 17.6036 8.10939C18.1214 7.33595 18.8021 6.74469 19.6459 6.3356C20.496 5.92651 21.4389 5.72196 22.4744 5.72196C23.5994 5.72196 24.5774 5.94568 25.4083 6.39313C26.2457 6.84057 26.8913 7.45421 27.3451 8.23404C27.8053 9.01387 28.0354 9.90236 28.0354 10.8995C28.0354 11.6026 27.9268 12.2387 27.7095 12.8075C27.4985 13.3764 27.1917 13.8846 26.789 14.332C26.3927 14.7795 25.9133 15.1758 25.3508 15.521C24.7883 15.8725 24.3377 16.2433 23.9989 16.6332C23.6601 17.0167 23.414 17.4737 23.2606 18.0043C23.1072 18.5348 23.0241 19.1964 23.0113 19.989V20.1041H20.7102ZM21.9374 25.7802C21.4644 25.7802 21.0585 25.6108 20.7198 25.272C20.381 24.9333 20.2116 24.5274 20.2116 24.0543C20.2116 23.5813 20.381 23.1754 20.7198 22.8367C21.0585 22.4979 21.4644 22.3285 21.9374 22.3285C22.4104 22.3285 22.8163 22.4979 23.1551 22.8367C23.4939 23.1754 23.6633 23.5813 23.6633 24.0543C23.6633 24.3676 23.5834 24.6552 23.4236 24.9173C23.2702 25.1793 23.0624 25.3903 22.8004 25.5501C22.5447 25.7035 22.257 25.7802 21.9374 25.7802Z" fill="#274772"/>
	</g>
	<defs>
		<filter id="filter0_d_6_86" x="0" y="0" width="45.5936" height="45.5909" filterUnits="userSpaceOnUse" color-interpolation-filters="sRGB">
			<feFlood flood-opacity="0" result="BackgroundImageFix"/>
			<feColorMatrix in="SourceAlpha" type="matrix" values="0 0 0 0 0 0 0 0 0 0 0 0 0 0 0 0 0 0 127 0" result="hardAlpha"/>
			<feOffset dy="1"/>
			<feGaussianBlur stdDeviation="0.5"/>
			<feComposite in2="hardAlpha" operator="out"/>
			<feColorMatrix type="matrix" values="0 0 0 0 0 0 0 0 0 0 0 0 0 0 0 0 0 0 0.25 0"/>
			<feBlend mode="normal" in2="BackgroundImageFix" result="effect1_dropShadow_6_86"/>
			<feBlend mode="normal" in="SourceGraphic" in2="effect1_dropShadow_6_86" result="shape"/>
		</filter>
	</defs>
</svg>
