<svg width="19" height="20" viewBox="0 0 19 20" fill="none" xmlns="http://www.w3.org/2000/svg">
    <path d="M17.5001 4.44116H1" stroke="#F59C7C" stroke-width="1.5" stroke-linecap="round"/>
    <path d="M15.8824 6.86768L15.436 13.5639C15.2642 16.1407 15.1783 17.4291 14.3387 18.2146C13.4992 19 12.2079 19 9.62534 19H8.87472C6.29218 19 5.00091 19 4.16134 18.2146C3.32177 17.4291 3.23588 16.1407 3.06409 13.5639L2.61768 6.86768" stroke="#F59C7C" stroke-width="1.5" stroke-linecap="round"/>
    <path d="M6.82373 9.29407L7.30903 14.147" stroke="#F59C7C" stroke-width="1.5" stroke-linecap="round"/>
    <path d="M11.6767 9.29407L11.1914 14.147" stroke="#F59C7C" stroke-width="1.5" stroke-linecap="round"/>
    <path d="M3.91162 4.44118C3.96586 4.44118 3.99298 4.44118 4.01756 4.44056C4.81678 4.42031 5.52185 3.91212 5.7938 3.16032C5.80217 3.13719 5.81074 3.11147 5.82789 3.06001L5.92213 2.77732C6.00257 2.536 6.04279 2.41533 6.09614 2.31288C6.30899 1.90414 6.70278 1.6203 7.15786 1.54763C7.27192 1.52942 7.39911 1.52942 7.65349 1.52942H10.8462C11.1006 1.52942 11.2278 1.52942 11.3419 1.54763C11.7969 1.6203 12.1907 1.90414 12.4036 2.31288C12.4569 2.41533 12.4971 2.53599 12.5776 2.77732L12.6718 3.06001C12.6889 3.1114 12.6976 3.13721 12.7059 3.16032C12.9779 3.91212 13.6829 4.42031 14.4822 4.44056C14.5067 4.44118 14.5339 4.44118 14.5881 4.44118" stroke="#F59C7C" stroke-width="1.5"/>
</svg>
