<svg width="14" height="18" viewBox="0 0 14 18" fill="none" xmlns="http://www.w3.org/2000/svg">
    <path d="M12.4446 4.66675C12.2383 4.66675 12.0405 4.74869 11.8946 4.89455C11.7488 5.04042 11.6668 5.23825 11.6668 5.44453V14.1486C11.6445 14.5419 11.4677 14.9105 11.1749 15.174C10.8821 15.4376 10.497 15.5747 10.1035 15.5556H3.89684C3.50336 15.5747 3.11827 15.4376 2.82546 15.174C2.53264 14.9105 2.35582 14.5419 2.33351 14.1486V5.44453C2.33351 5.23825 2.25157 5.04042 2.1057 4.89455C1.95984 4.74869 1.76201 4.66675 1.55573 4.66675C1.34945 4.66675 1.15162 4.74869 1.00576 4.89455C0.859898 5.04042 0.777954 5.23825 0.777954 5.44453V14.1486C0.800155 14.9546 1.14085 15.7189 1.72543 16.2742C2.31 16.8295 3.09081 17.1304 3.89684 17.1112H10.1035C10.9095 17.1304 11.6903 16.8295 12.2749 16.2742C12.8595 15.7189 13.2002 14.9546 13.2224 14.1486V5.44453C13.2224 5.23825 13.1405 5.04042 12.9946 4.89455C12.8487 4.74869 12.6509 4.66675 12.4446 4.66675Z"
          fill="#DE5858" fill-opacity="1"/>
    <path d="M13.2222 2.33333H10.1111V0.777778C10.1111 0.571498 10.0292 0.373667 9.88331 0.227806C9.73744 0.0819442 9.53961 0 9.33333 0H4.66667C4.46039 0 4.26256 0.0819442 4.11669 0.227806C3.97083 0.373667 3.88889 0.571498 3.88889 0.777778V2.33333H0.777778C0.571498 2.33333 0.373667 2.41528 0.227806 2.56114C0.0819442 2.707 0 2.90483 0 3.11111C0 3.31739 0.0819442 3.51522 0.227806 3.66108C0.373667 3.80694 0.571498 3.88889 0.777778 3.88889H13.2222C13.4285 3.88889 13.6263 3.80694 13.7722 3.66108C13.9181 3.51522 14 3.31739 14 3.11111C14 2.90483 13.9181 2.707 13.7722 2.56114C13.6263 2.41528 13.4285 2.33333 13.2222 2.33333ZM5.44444 2.33333V1.55556H8.55556V2.33333H5.44444Z"
          fill="#DE5858" fill-opacity="1"/>
    <path d="M6.22218 12.4444V6.99995C6.22218 6.79367 6.14024 6.59584 5.99438 6.44997C5.84851 6.30411 5.65068 6.22217 5.4444 6.22217C5.23812 6.22217 5.04029 6.30411 4.89443 6.44997C4.74857 6.59584 4.66663 6.79367 4.66663 6.99995V12.4444C4.66663 12.6507 4.74857 12.8485 4.89443 12.9944C5.04029 13.1402 5.23812 13.2222 5.4444 13.2222C5.65068 13.2222 5.84851 13.1402 5.99438 12.9944C6.14024 12.8485 6.22218 12.6507 6.22218 12.4444Z"
          fill="#DE5858" fill-opacity="1"/>
    <path d="M9.33351 12.4444V6.99995C9.33351 6.79367 9.25157 6.59584 9.1057 6.44997C8.95984 6.30411 8.76201 6.22217 8.55573 6.22217C8.34945 6.22217 8.15162 6.30411 8.00576 6.44997C7.8599 6.59584 7.77795 6.79367 7.77795 6.99995V12.4444C7.77795 12.6507 7.8599 12.8485 8.00576 12.9944C8.15162 13.1402 8.34945 13.2222 8.55573 13.2222C8.76201 13.2222 8.95984 13.1402 9.1057 12.9944C9.25157 12.8485 9.33351 12.6507 9.33351 12.4444Z"
          fill="#DE5858" fill-opacity="1"/>
</svg>