<svg width="37" height="37" viewBox="0 0 37 37" fill="none" xmlns="http://www.w3.org/2000/svg">
    <path fill-rule="evenodd" clip-rule="evenodd"
          d="M9.04011 9.7665e-06L27.535 0.0269682C32.5055 0.0342123 36.5291 4.06952 36.5219 9.04008L36.5162 12.8951H33.5162L33.5219 9.0357C33.5267 5.722 30.8443 3.03179 27.5306 3.02696L9.03575 3.00001C5.72203 2.99518 3.03181 5.67755 3.02699 8.99126L3.00001 27.4646C2.99519 30.7783 5.67756 33.4685 8.99125 33.4733L27.4861 33.5003C30.7998 33.5051 33.4901 30.8227 33.4949 27.509L33.5007 23.5608H36.5007L36.4949 27.5134C36.4876 32.484 32.4523 36.5075 27.4818 36.5003L8.98689 36.4733C4.01634 36.4661 -0.00722293 32.4308 9.7357e-06 27.4602L0.0269873 8.98688C0.0342505 4.01633 4.06956 -0.00723434 9.04011 9.7665e-06ZM22.563 15.8962C21.4626 17.1838 19.8266 18 18 18C16.1734 18 14.5375 17.1838 13.437 15.8962C13.4145 15.8698 13.3922 15.8433 13.3701 15.8166C12.5142 14.7794 12 13.4497 12 12C12 8.68629 14.6863 6 18 6C21.3137 6 24 8.68629 24 12C24 13.4871 23.459 14.8479 22.563 15.8962ZM12.5132 16.3472C10.5479 17.4404 9.22566 19.1069 9.02625 21H9.00001V21.5V28H18H21.207C21.0722 27.5232 21 27.02 21 26.5C21 23.4624 23.4624 21 26.5 21C26.6686 21 26.8353 21.0076 27 21.0224V21H26.9738C26.7744 19.1069 25.4521 17.4404 23.4869 16.3472C22.2046 17.9634 20.2234 19 18 19C15.7767 19 13.7954 17.9634 12.5132 16.3472ZM27 32C29.7614 32 32 29.7614 32 27C32 24.2386 29.7614 22 27 22C24.2386 22 22 24.2386 22 27C22 29.7614 24.2386 32 27 32ZM30 28H24V26H30V28Z"
          fill="#fff"/>
</svg>
