<svg width="37" height="37" viewBox="0 0 37 37" fill="none" xmlns="http://www.w3.org/2000/svg">
    <path fill-rule="evenodd" clip-rule="evenodd"
          d="M9.04011 1.18967e-05L27.535 0.026971C32.5055 0.0342164 36.5291 4.06952 36.5219 9.04008L36.5162 12.8951H33.5162L33.5219 9.03571C33.5267 5.722 30.8443 3.0318 27.5306 3.02697L9.03573 3.00001C5.72203 2.99518 3.03182 5.67756 3.02698 8.99126L3.00002 27.4646C2.99518 30.7783 5.67755 33.4685 8.99126 33.4733L27.4861 33.5003C30.7998 33.5051 33.4901 30.8227 33.4949 27.509L33.5007 23.5608H36.5007L36.4949 27.5134C36.4876 32.484 32.4523 36.5075 27.4818 36.5003L8.98688 36.4733C4.01632 36.4661 -0.00723608 32.4308 1.95332e-05 27.4602L0.0269854 8.98689C0.034241 4.01633 4.06955 -0.00723346 9.04011 1.18967e-05ZM18 13C20.2091 13 22 11.2091 22 9C22 6.79086 20.2091 5 18 5C15.7909 5 14 6.79086 14 9C14 11.2091 15.7909 13 18 13ZM18 31C20.2091 31 22 29.2091 22 27C22 24.7909 20.2091 23 18 23C15.7909 23 14 24.7909 14 27C14 29.2091 15.7909 31 18 31ZM22 18C22 20.2091 20.2091 22 18 22C15.7909 22 14 20.2091 14 18C14 15.7909 15.7909 14 18 14C20.2091 14 22 15.7909 22 18Z"
          fill="#274772"/>
</svg>
