<svg width="25" height="26" viewBox="0 0 25 26" fill="none" xmlns="http://www.w3.org/2000/svg">
    <rect x="0.912109" y="0.914551" width="24" height="24.2677" rx="3" fill="#F3F7FB"/>
    <path fill-rule="evenodd" clip-rule="evenodd" d="M16.6619 10.0148C16.6619 11.2713 15.6546 12.2899 14.4119 12.2899C13.1693 12.2899 12.1619 11.2713 12.1619 10.0148C12.1619 8.75834 13.1693 7.73975 14.4119 7.73975C15.6546 7.73975 16.6619 8.75834 16.6619 10.0148ZM14.4119 11.3799C15.1575 11.3799 15.7619 10.7687 15.7619 10.0148C15.7619 9.26094 15.1575 8.64978 14.4119 8.64978C13.6663 8.64978 13.0619 9.26094 13.0619 10.0148C13.0619 10.7687 13.6663 11.3799 14.4119 11.3799Z" fill="#90A0B7"/>
    <path fill-rule="evenodd" clip-rule="evenodd" d="M9.16191 16.0818C9.16191 17.3383 10.1693 18.3568 11.4119 18.3568C12.6546 18.3568 13.6619 17.3383 13.6619 16.0818C13.6619 14.8253 12.6546 13.8067 11.4119 13.8067C10.1693 13.8067 9.16191 14.8253 9.16191 16.0818ZM11.4119 17.4468C10.6663 17.4468 10.0619 16.8357 10.0619 16.0818C10.0619 15.3279 10.6663 14.7167 11.4119 14.7167C12.1575 14.7167 12.7619 15.3279 12.7619 16.0818C12.7619 16.8357 12.1575 17.4468 11.4119 17.4468Z" fill="#90A0B7"/>
    <path d="M14.2619 16.0566C14.2619 15.8053 14.4634 15.6016 14.7119 15.6016H18.9119C19.1604 15.6016 19.3619 15.8053 19.3619 16.0566C19.3619 16.3079 19.1604 16.5116 18.9119 16.5116H14.7119C14.4634 16.5116 14.2619 16.3079 14.2619 16.0566Z" fill="#90A0B7"/>
    <path d="M11.1119 9.53466C11.3604 9.53466 11.5619 9.73837 11.5619 9.98967C11.5619 10.241 11.3604 10.4447 11.1119 10.4447L6.91191 10.4447C6.66339 10.4447 6.46191 10.241 6.46191 9.98967C6.46191 9.73837 6.66339 9.53466 6.91191 9.53466L11.1119 9.53466Z" fill="#90A0B7"/>
    <path d="M6.46191 16.0566C6.46191 15.8053 6.66339 15.6016 6.91191 15.6016H8.11191C8.36044 15.6016 8.56191 15.8053 8.56191 16.0566C8.56191 16.3079 8.36044 16.5116 8.11191 16.5116H6.91191C6.66339 16.5116 6.46191 16.3079 6.46191 16.0566Z" fill="#90A0B7"/>
    <path d="M18.9119 9.53466C19.1604 9.53466 19.3619 9.73837 19.3619 9.98967C19.3619 10.241 19.1604 10.4447 18.9119 10.4447H17.7119C17.4634 10.4447 17.2619 10.241 17.2619 9.98967C17.2619 9.73837 17.4634 9.53466 17.7119 9.53466H18.9119Z" fill="#90A0B7"/>
</svg>
