<svg width="38" height="38" viewBox="0 0 38 38" fill="none" xmlns="http://www.w3.org/2000/svg">
    <path fill-rule="evenodd" clip-rule="evenodd"
          d="M28.1991 0.702933L9.7042 0.675974C4.73364 0.668729 0.698324 4.6923 0.691069 9.66285L0.664103 28.1362C0.656847 33.1067 4.6804 37.142 9.65096 37.1493L28.1458 37.1762C33.1164 37.1835 37.1517 33.1599 37.159 28.1894L37.1647 24.2367H34.1647L34.159 28.185C34.1541 31.4987 31.4639 34.1811 28.1502 34.1762L9.65534 34.1493C6.34163 34.1445 3.65926 31.4542 3.6641 28.1405L3.69107 9.66722C3.6959 6.35352 6.38611 3.67114 9.69982 3.67597L28.1947 3.70293C31.5084 3.70776 34.1908 6.39796 34.1859 9.71167L34.1803 13.5711H37.1803L37.1859 9.71604C37.1932 4.74548 33.1696 0.710179 28.1991 0.702933ZM18.4629 22.4619L10.7648 30.1939L7.23704 26.6506L14.9351 18.9186L7.72464 11.6764L11.2524 8.13306L18.4629 15.3753L26.0682 7.73654L29.596 11.2798L21.9907 18.9186L30.0836 27.0471L26.5558 30.5904L18.4629 22.4619Z"
          fill="#274772"/>
</svg>
