<svg width="82" height="82" viewBox="0 0 82 82" fill="none" xmlns="http://www.w3.org/2000/svg">
    <path d="M36.1152 14.1875C36.1152 17.4198 34.8312 20.5198 32.5456 22.8054C30.26 25.091 27.1601 26.375 23.9278 26.375C20.6954 26.375 17.5955 25.091 15.3099 22.8054C13.0243 20.5198 11.7403 17.4198 11.7403 14.1875C11.7403 10.9552 13.0243 7.85524 15.3099 5.56964C17.5955 3.28404 20.6954 2 23.9278 2C27.1601 2 30.26 3.28404 32.5456 5.56964C34.8312 7.85524 36.1152 10.9552 36.1152 14.1875ZM56.7121 33.9459C56.255 33.7169 55.7374 33.6374 55.2326 33.7188C54.7277 33.8001 54.2613 34.0382 53.8993 34.3992L35.813 57.3605L22.8455 43.847C22.3773 43.5353 21.8157 43.3951 21.256 43.4502C20.6962 43.5053 20.1727 43.7522 19.7743 44.1492L2 65.375V75.125C2 76.4179 2.51361 77.6579 3.42785 78.5721C4.34209 79.4864 5.58207 80 6.875 80H75.125C75.7652 80 76.3991 79.8739 76.9906 79.6289C77.582 79.3839 78.1195 79.0248 78.5721 78.5721C79.0248 78.1195 79.3839 77.582 79.6289 76.9906C79.8739 76.3991 80 75.7652 80 75.125V53.1875L56.7121 33.9459Z" fill="rgba(238,242,245, 1)"/>
</svg>
