<svg width="250" height="163" viewBox="0 0 132 113" opacity="0.1" fill="none" xmlns="http://www.w3.org/2000/svg">
    <path fill-rule="evenodd" clip-rule="evenodd"
          d="M9.17775 7.03764e-06L122.478 0.140205C127.449 0.146354 131.471 4.18078 131.463 9.15133L131.414 37.5356H128.414L128.463 9.14762C128.469 5.83392 125.787 3.14429 122.473 3.1402L9.17238 3.00001C5.85866 2.9959 3.16798 5.67887 3.16212 8.99258L3.00001 103.279C2.9944 106.593 5.67604 109.282 8.98976 109.286L122.29 109.427C125.604 109.431 128.295 106.748 128.301 103.434L128.35 74.7359H131.35L131.301 103.438C131.292 108.408 127.256 112.433 122.285 112.427L8.98463 112.286C4.01393 112.28 -0.00853133 108.246 1.35888e-05 103.275L0.162123 8.98887C0.170668 4.0183 4.20704 -0.00614225 9.17775 7.03764e-06ZM35.1101 31V20.0909H32.4788V26.3764H32.3882L28.0947 20.0909H25.8257V31H28.4624V24.7038H28.5315L32.8728 31H35.1101ZM38.3714 30.6271C38.9893 30.9787 39.7278 31.1545 40.5872 31.1545C41.4465 31.1545 42.1836 30.9787 42.7979 30.6271C43.4158 30.272 43.8899 29.7784 44.22 29.1463C44.554 28.5107 44.7207 27.7738 44.7207 26.9357C44.7207 26.0941 44.554 25.3572 44.22 24.7252C43.8899 24.0895 43.4158 23.5959 42.7979 23.2443C42.1836 22.8892 41.4465 22.7117 40.5872 22.7117C39.7278 22.7117 38.9893 22.8892 38.3714 23.2443C37.7571 23.5959 37.283 24.0895 36.9492 24.7252C36.6189 25.3572 36.4539 26.0941 36.4539 26.9357C36.4539 27.7738 36.6189 28.5107 36.9492 29.1463C37.283 29.7784 37.7571 30.272 38.3714 30.6271ZM41.397 28.9013C41.1804 29.0931 40.9158 29.1889 40.6033 29.1889C40.28 29.1889 40.0066 29.0931 39.783 28.9013C39.5628 28.7095 39.3941 28.4432 39.2769 28.1023C39.1633 27.7614 39.1065 27.3672 39.1065 26.9197C39.1065 26.4652 39.1633 26.0675 39.2769 25.7266C39.3941 25.3857 39.5628 25.1193 39.783 24.9276C40.0066 24.7358 40.28 24.6399 40.6033 24.6399C40.9158 24.6399 41.1804 24.7358 41.397 24.9276C41.6135 25.1193 41.7786 25.3857 41.8923 25.7266C42.0095 26.0675 42.0681 26.4652 42.0681 26.9197C42.0681 27.3672 42.0095 27.7614 41.8923 28.1023C41.7786 28.4432 41.6135 28.7095 41.397 28.9013ZM49.2778 20.0909V31H51.9146V27.6122H53.7044C54.5388 27.6122 55.2598 27.4578 55.867 27.1488C56.4741 26.8399 56.9412 26.4048 57.2678 25.8438C57.5982 25.2791 57.7632 24.6204 57.7632 23.8675C57.7632 23.1183 57.6016 22.4613 57.2786 21.8967C56.9553 21.3285 56.4954 20.8864 55.8989 20.5703C55.3059 20.2507 54.6008 20.0909 53.7842 20.0909H49.2778ZM51.9146 25.5348H53.2141C53.6121 25.5348 53.9441 25.4656 54.2102 25.3271C54.4802 25.1886 54.6843 24.995 54.823 24.7465C54.9614 24.4943 55.0305 24.2014 55.0305 23.8675C55.0305 23.5302 54.9614 23.239 54.823 22.994C54.6843 22.7454 54.4802 22.5536 54.2102 22.4187C53.9404 22.2837 53.6084 22.2163 53.2141 22.2163H51.9146V25.5348ZM61.6677 31V26.3338C61.6712 26.0213 61.7297 25.755 61.8435 25.5348C61.9607 25.3146 62.1223 25.146 62.3281 25.0288C62.5379 24.908 62.7793 24.8477 63.0527 24.8477C63.4717 24.8477 63.7966 24.9755 64.0274 25.2312C64.2583 25.4869 64.3718 25.842 64.3684 26.2965V31H66.9732V25.7852C66.9766 25.1673 66.8594 24.6275 66.6216 24.1658C66.3872 23.7042 66.0569 23.3473 65.6309 23.0952C65.2046 22.8395 64.7039 22.7117 64.1287 22.7117C63.5178 22.7117 63.0012 22.8537 62.5786 23.1378C62.1594 23.4219 61.8577 23.8161 61.6731 24.3203H61.5825V20.0909H59.063V31H61.6677ZM70.2024 30.6271C70.8203 30.9787 71.5589 31.1545 72.4182 31.1545C73.2776 31.1545 74.0147 30.9787 74.6289 30.6271C75.2468 30.272 75.721 29.7784 76.051 29.1463C76.385 28.5107 76.5518 27.7738 76.5518 26.9357C76.5518 26.0941 76.385 25.3572 76.051 24.7252C75.721 24.0895 75.2468 23.5959 74.6289 23.2443C74.0147 22.8892 73.2776 22.7117 72.4182 22.7117C71.5589 22.7117 70.8203 22.8892 70.2024 23.2443C69.5881 23.5959 69.114 24.0895 68.7803 24.7252C68.45 25.3572 68.2849 26.0941 68.2849 26.9357C68.2849 27.7738 68.45 28.5107 68.7803 29.1463C69.114 29.7784 69.5881 30.272 70.2024 30.6271ZM73.228 28.9013C73.0115 29.0931 72.7468 29.1889 72.4343 29.1889C72.1111 29.1889 71.8377 29.0931 71.614 28.9013C71.3938 28.7095 71.2251 28.4432 71.1079 28.1023C70.9944 27.7614 70.9375 27.3672 70.9375 26.9197C70.9375 26.4652 70.9944 26.0675 71.1079 25.7266C71.2251 25.3857 71.3938 25.1193 71.614 24.9276C71.8377 24.7358 72.1111 24.6399 72.4343 24.6399C72.7468 24.6399 73.0115 24.7358 73.228 24.9276C73.4446 25.1193 73.6096 25.3857 73.7234 25.7266C73.8406 26.0675 73.8992 26.4652 73.8992 26.9197C73.8992 27.3672 73.8406 27.7614 73.7234 28.1023C73.6096 28.4432 73.4446 28.7095 73.228 28.9013ZM82.5044 24.7358V22.8182H81.0291V20.858H78.4241V22.8182H77.3428V24.7358H78.4241V28.7149C78.417 29.2688 78.5271 29.7287 78.7544 30.0945C78.9854 30.4602 79.3174 30.7301 79.7505 30.9041C80.1873 31.0746 80.7112 31.1456 81.322 31.1172C81.6345 31.103 81.9026 31.0693 82.1262 31.016C82.3535 30.9627 82.5293 30.9183 82.6536 30.8828L82.2595 29.0025C82.2027 29.0167 82.1174 29.0345 82.0037 29.0558C81.8936 29.0735 81.7888 29.0824 81.6895 29.0824C81.551 29.0824 81.4319 29.0629 81.3325 29.0238C81.2332 28.9812 81.1568 28.9119 81.1035 28.8161C81.0537 28.7166 81.0291 28.587 81.0291 28.4272V24.7358H82.5044ZM85.3489 30.6271C85.9668 30.9787 86.7053 31.1545 87.5647 31.1545C88.4241 31.1545 89.1611 30.9787 89.7754 30.6271C90.3933 30.272 90.8674 29.7784 91.1975 29.1463C91.5315 28.5107 91.6983 27.7738 91.6983 26.9357C91.6983 26.0941 91.5315 25.3572 91.1975 24.7252C90.8674 24.0895 90.3933 23.5959 89.7754 23.2443C89.1611 22.8892 88.4241 22.7117 87.5647 22.7117C86.7053 22.7117 85.9668 22.8892 85.3489 23.2443C84.7346 23.5959 84.2605 24.0895 83.9268 24.7252C83.5964 25.3572 83.4314 26.0941 83.4314 26.9357C83.4314 27.7738 83.5964 28.5107 83.9268 29.1463C84.2605 29.7784 84.7346 30.272 85.3489 30.6271ZM88.3745 28.9013C88.158 29.0931 87.8933 29.1889 87.5808 29.1889C87.2576 29.1889 86.9841 29.0931 86.7605 28.9013C86.5403 28.7095 86.3716 28.4432 86.2544 28.1023C86.1409 27.7614 86.084 27.3672 86.084 26.9197C86.084 26.4652 86.1409 26.0675 86.2544 25.7266C86.3716 25.3857 86.5403 25.1193 86.7605 24.9276C86.9841 24.7358 87.2576 24.6399 87.5808 24.6399C87.8933 24.6399 88.158 24.7358 88.3745 24.9276C88.5911 25.1193 88.7561 25.3857 88.8699 25.7266C88.9871 26.0675 89.0457 26.4652 89.0457 26.9197C89.0457 27.3672 88.9871 27.7614 88.8699 28.1023C88.7561 28.4432 88.5911 28.7095 88.3745 28.9013ZM76 41C71.5818 41 68 44.5817 68 49V55H32C27.5818 55 24 58.5817 24 63V94C24 98.4183 27.5818 102 32 102H101C105.418 102 109 98.4183 109 94V63C109 58.5817 105.418 55 101 55H95V49C95 44.5817 91.4182 41 87 41H76ZM84 80.5C84 90.165 76.1651 98 66.5 98C56.835 98 49 90.165 49 80.5C49 70.835 56.835 63 66.5 63C76.1651 63 84 70.835 84 80.5ZM83 80.5C83 89.6127 75.6128 97 66.5 97C57.3872 97 50 89.6127 50 80.5C50 71.3873 57.3872 64 66.5 64C75.6128 64 83 71.3873 83 80.5ZM90 45H74V54H90V45ZM66.5 93C73.4036 93 79 87.4036 79 80.5C79 73.5965 73.4036 68 66.5 68C59.5964 68 54 73.5965 54 80.5C54 87.4036 59.5964 93 66.5 93Z"
          fill="#274772"/>
</svg>
