<svg width="45" height="45" viewBox="0 0 45 45" fill="none" xmlns="http://www.w3.org/2000/svg">
    <path fill-rule="evenodd" clip-rule="evenodd" d="M35.4607 0.038523L9.05177 9.77679e-06C4.08106 -0.00723815 0.0459084 4.01632 0.0385842 8.98687L9.98323e-06 35.3875C-0.00731424 40.3581 4.01637 44.3934 8.98683 44.4006L35.396 44.4392C40.3665 44.4464 44.4019 40.4228 44.4089 35.4523L44.4185 28.9117H41.4185L41.4089 35.4479C41.4043 38.7616 38.7139 41.444 35.4002 41.4392L8.99122 41.4006C5.6775 41.3958 2.99513 38.7056 3.00001 35.3919L3.03858 8.99125C3.04347 5.67755 5.73365 2.99517 9.04737 2.99999L35.4563 3.03851C38.77 3.04334 41.4524 5.73356 41.4475 9.04725L41.4382 15.4714H44.4382L44.4475 9.05163C44.4548 4.08108 40.4312 0.0457709 35.4607 0.038523ZM7.00001 9.99999H38V14H7.00001V9.99999ZM38 24H7.00001V28H38V24ZM7.00001 17H38V21H7.00001V17ZM38 31H7.00001V35H38V31Z" fill="#505160"/>
</svg>
