<svg width="45" height="45" viewBox="0 0 45 45" fill="none" xmlns="http://www.w3.org/2000/svg">
    <path fill-rule="evenodd" clip-rule="evenodd" d="M35.4607 0.0385184L9.05166 4.29741e-06C4.0811 -0.00724461 0.0457905 4.01633 0.0385384 8.98688L1.97712e-05 35.3875C-0.00723229 40.3581 4.01632 44.3934 8.98688 44.4006L35.3959 44.4392C40.3665 44.4464 44.4018 40.4228 44.409 35.4523L44.4186 28.9117H41.4186L41.409 35.4479C41.4042 38.7616 38.714 41.444 35.4003 41.4392L8.99125 41.4006C5.67755 41.3958 2.99518 38.7056 3.00002 35.3919L3.03854 8.99125C3.04337 5.67755 5.73358 2.99517 9.04728 3L35.4563 3.03852C38.77 3.04335 41.4524 5.73355 41.4475 9.04726L41.4382 15.4714H44.4382L44.4475 9.05163C44.4548 4.08108 40.4312 0.0457673 35.4607 0.0385184ZM10 11H35V15H10V11ZM35 23H10V27H35V23ZM10 17H35V21H10V17ZM35 29H10V33H35V29Z" fill="#274772"/>
</svg>
