<svg width="46" height="46" viewBox="0 0 46 46" fill="none" xmlns="http://www.w3.org/2000/svg">
    <path fill-rule="evenodd" clip-rule="evenodd" d="M9.82777 0.778635L36.2368 0.817149C41.2074 0.824398 45.2309 4.85971 45.2237 9.83027L45.2143 16.2501H42.2143L42.2237 9.82589C42.2285 6.51218 39.5461 3.82198 36.2324 3.81715L9.8234 3.77863C6.50969 3.7738 3.81948 6.45618 3.81465 9.76988L3.77613 36.1705C3.77129 39.4842 6.45366 42.1744 9.76737 42.1793L36.1764 42.2178C39.4901 42.2226 42.1803 39.5402 42.1851 36.2265L42.1947 29.6903H45.1947L45.1851 36.2309C45.1779 41.2015 41.1426 45.225 36.172 45.2178L9.76299 45.1793C4.79243 45.172 0.768881 41.1367 0.776133 36.1662L0.814651 9.76551C0.821904 4.79496 4.85721 0.771386 9.82777 0.778635ZM12.8824 21.7463L12.8823 21.7463C12.3884 22.1768 12.1414 22.392 12.0541 22.647C11.9807 22.8614 11.9821 23.094 12.0581 23.3069C12.1485 23.5602 12.398 23.7705 12.8971 24.1911L24.0566 33.5964C24.9156 34.3205 25.3452 34.6825 25.7075 34.6837C26.0088 34.6848 26.295 34.5499 26.4866 34.3166C26.717 34.0361 26.7136 33.4732 26.7068 32.3476L26.6681 25.9243H33.105C33.6573 25.9243 34.105 25.4766 34.105 24.9243V19.8909C34.105 19.3386 33.6573 18.8909 33.105 18.8909H26.6258L26.5922 13.3163V13.3162C26.5854 12.1906 26.582 11.6278 26.3483 11.3519C26.1539 11.1224 25.8661 10.9932 25.5649 11.0003C25.2026 11.0087 24.7775 11.3792 23.9273 12.1202L23.9273 12.1203L12.8824 21.7463Z" fill="#505160"/>
</svg>
