<svg width="46" height="46" viewBox="0 0 46 46" fill="none" xmlns="http://www.w3.org/2000/svg">
	<g filter="url(#filter0_d_1_242)">
		<path fill-rule="evenodd" clip-rule="evenodd" d="M35.4225 43.4696L9.98687 43.4325C5.01632 43.4252 0.992756 39.3899 1.00001 34.4193L1.00891 28.3128H4.00892L4 34.4237C3.99517 37.7374 6.67754 40.4276 9.99125 40.4325L35.4269 40.4696C38.7406 40.4744 41.4308 37.792 41.4357 34.4783L41.4728 9.04585C41.4776 5.73215 38.7952 3.04194 35.4815 3.03711L10.0459 3.00001C6.73215 2.99518 4.04194 5.67755 4.03711 8.99125L4.02803 15.2114H1.02803L1.03711 8.98687C1.04436 4.01631 5.07967 -0.00723839 10.0502 1.33514e-05L35.4859 0.0371113C40.4565 0.0443592 44.48 4.07967 44.4728 9.05023L44.4357 34.4827C44.4284 39.4533 40.3931 43.4768 35.4225 43.4696ZM6.69979 23.0051C6.02474 22.5472 5.68722 22.3183 5.57391 22.0308C5.47907 21.7902 5.48114 21.5222 5.5797 21.2831C5.69744 20.9974 6.03846 20.7737 6.72052 20.3264L23.1864 9.52648C24.0125 8.98467 24.4255 8.71377 24.7662 8.7404C25.0502 8.7626 25.3113 8.90489 25.4839 9.13156C25.6909 9.40341 25.687 9.89734 25.6794 10.8852L25.6253 17.876H32.9389C33.4912 17.876 33.9389 18.3237 33.9389 18.876L33.9389 24.4065C33.9389 24.9587 33.4912 25.4065 32.9389 25.4065H25.567L25.5103 32.7384C25.5027 33.7262 25.4989 34.2201 25.2877 34.4888C25.1116 34.7127 24.8484 34.851 24.564 34.8688C24.223 34.8901 23.8142 34.6129 22.9966 34.0584L6.69979 23.0051Z" fill="#505160"/>
	</g>
	<defs>
		<filter id="filter0_d_1_242" x="0" y="3.8147e-06" width="45.4728" height="45.4696" filterUnits="userSpaceOnUse" color-interpolation-filters="sRGB">
			<feFlood flood-opacity="0" result="BackgroundImageFix"/>
			<feColorMatrix in="SourceAlpha" type="matrix" values="0 0 0 0 0 0 0 0 0 0 0 0 0 0 0 0 0 0 127 0" result="hardAlpha"/>
			<feOffset dy="1"/>
			<feGaussianBlur stdDeviation="0.5"/>
			<feComposite in2="hardAlpha" operator="out"/>
			<feColorMatrix type="matrix" values="0 0 0 0 0 0 0 0 0 0 0 0 0 0 0 0 0 0 0.25 0"/>
			<feBlend mode="normal" in2="BackgroundImageFix" result="effect1_dropShadow_1_242"/>
			<feBlend mode="normal" in="SourceGraphic" in2="effect1_dropShadow_1_242" result="shape"/>
		</filter>
	</defs>
</svg>
