<svg width="46" height="46" viewBox="0 0 46 46" fill="none" xmlns="http://www.w3.org/2000/svg">
    <path fill-rule="evenodd" clip-rule="evenodd" d="M9.82777 0.778635L36.2368 0.817149C41.2074 0.824398 45.2309 4.85971 45.2237 9.83027L45.2143 16.2501H42.2143L42.2237 9.82589C42.2285 6.51218 39.5461 3.82198 36.2324 3.81715L9.8234 3.77863C6.50969 3.7738 3.81948 6.45618 3.81465 9.76988L3.77613 36.1705C3.77129 39.4842 6.45366 42.1744 9.76737 42.1793L36.1764 42.2178C39.4901 42.2226 42.1803 39.5402 42.1851 36.2265L42.1947 29.6903H45.1947L45.1851 36.2309C45.1779 41.2015 41.1426 45.225 36.172 45.2178L9.76299 45.1793C4.79243 45.172 0.768881 41.1367 0.776133 36.1662L0.814651 9.76551C0.821904 4.79496 4.85721 0.771386 9.82777 0.778635ZM43.0708 21.9061C44.0465 22.3811 44.5344 22.6186 44.6825 22.9426C44.8057 23.2123 44.8024 23.5234 44.6734 23.7917C44.5183 24.1141 44.0254 24.3461 43.0395 24.8103L21.0763 35.1492C20.299 35.5151 19.9103 35.6981 19.5977 35.643C19.3363 35.5969 19.1045 35.4486 18.9535 35.2308C18.7729 34.9703 18.7775 34.5417 18.7867 33.6844V33.6844L18.8662 26.3164H9C8.44772 26.3164 8 25.8687 8 25.3164V20.283C8 19.7307 8.44772 19.283 9 19.283H18.942L19.0123 12.7638C19.0215 11.9065 19.0261 11.4778 19.2123 11.2194C19.368 11.0033 19.603 10.8576 19.8653 10.8144C20.1791 10.7628 20.5638 10.95 21.3331 11.3245L21.3331 11.3245L37.6822 19.283H38.0378C38.4573 19.283 38.8164 19.5413 38.9649 19.9074L43.0708 21.9061Z" fill="#274772"/>
</svg>
