<svg width="39" height="38" viewBox="0 0 39 38" fill="none" xmlns="http://www.w3.org/2000/svg">
	<path fill-rule="evenodd" clip-rule="evenodd" d="M10.0401 1.00002L28.535 1.02698C33.5055 1.03422 37.5291 5.06953 37.5219 10.0401L37.5162 13.8951H34.5162L34.5219 10.0357C34.5267 6.72201 31.8443 4.03181 28.5306 4.02698L10.0357 4.00002C6.72203 3.99519 4.03182 6.67756 4.02698 9.99127L4.00002 28.4646C3.99518 31.7783 6.67755 34.4685 9.99126 34.4733L28.4861 34.5003C31.7998 34.5051 34.4901 31.8227 34.4949 28.509L34.5007 24.5608H37.5007L37.4949 28.5134C37.4876 33.484 33.4523 37.5075 28.4818 37.5003L9.98688 37.4733C5.01632 37.4661 0.992764 33.4308 1.00002 28.4602L1.02699 9.9869C1.03424 5.01634 5.06955 0.992774 10.0401 1.00002ZM6.17621 18.3491L6.1762 18.3491L6.17616 18.3491C5.51249 18.8057 5.18065 19.0341 5.06886 19.3198C4.97527 19.559 4.9773 19.825 5.07453 20.0627C5.19066 20.3466 5.52594 20.5697 6.19651 21.0159L6.19653 21.0159L6.19655 21.0159L21.6486 31.2968L21.6486 31.2968C22.4767 31.8477 22.8907 32.1232 23.2326 32.098C23.5176 32.077 23.7801 31.9351 23.9537 31.708C24.162 31.4357 24.1582 30.9383 24.1506 29.9437L24.0956 22.734H32.8193C33.3716 22.734 33.8193 22.2863 33.8193 21.734V16.4743C33.8193 15.9221 33.3716 15.4743 32.8193 15.4743H24.0402L23.9919 9.14069V9.14066C23.9843 8.146 23.9805 7.64866 23.7681 7.37961C23.5911 7.1553 23.3265 7.0175 23.0412 7.00099C22.6989 6.98118 22.2892 7.26311 21.4696 7.82699L21.4696 7.82699L6.17621 18.3491Z" fill="#505160"/>
	<path d="M28.535 1.02698L28.5343 1.52698L28.535 1.02698ZM10.0401 1.00002L10.0408 0.50002L10.0401 1.00002ZM37.5219 10.0401L37.0219 10.0394L37.0219 10.0394L37.5219 10.0401ZM37.5162 13.8951V14.3951H38.0155L38.0162 13.8958L37.5162 13.8951ZM34.5162 13.8951L34.0162 13.8944L34.0155 14.3951H34.5162V13.8951ZM34.5219 10.0357L35.0219 10.0364L35.0219 10.0364L34.5219 10.0357ZM28.5306 4.02698L28.5299 4.52697L28.5299 4.52697L28.5306 4.02698ZM10.0357 4.00002L10.0365 3.50002L10.0365 3.50002L10.0357 4.00002ZM4.02698 9.99127L4.52698 9.992L4.02698 9.99127ZM4.00002 28.4646L3.50002 28.4639L4.00002 28.4646ZM9.99126 34.4733L9.99053 34.9733L9.99053 34.9733L9.99126 34.4733ZM28.4861 34.5003L28.4854 35.0003L28.4854 35.0003L28.4861 34.5003ZM34.4949 28.509L33.9949 28.5083L33.9949 28.5083L34.4949 28.509ZM34.5007 24.5608V24.0608H34.0014L34.0007 24.56L34.5007 24.5608ZM37.5007 24.5608L38.0007 24.5615L38.0014 24.0608H37.5007V24.5608ZM37.4949 28.5134L36.9949 28.5127L36.9949 28.5127L37.4949 28.5134ZM28.4818 37.5003L28.4825 37.0003L28.4825 37.0003L28.4818 37.5003ZM9.98688 37.4733L9.98761 36.9733L9.98761 36.9733L9.98688 37.4733ZM1.00002 28.4602L0.50002 28.4595L1.00002 28.4602ZM1.02699 9.9869L0.526986 9.98617L1.02699 9.9869ZM6.17621 18.3491L6.45359 18.7652L6.45962 18.761L6.17621 18.3491ZM6.17616 18.3491L5.89878 17.9331L5.89275 17.9372L6.17616 18.3491ZM5.06886 19.3198L4.60324 19.1376L4.60324 19.1376L5.06886 19.3198ZM5.07453 20.0627L4.61175 20.252L4.61175 20.252L5.07453 20.0627ZM6.19651 21.0159L6.48496 20.6072L6.47348 20.5996L6.19651 21.0159ZM6.19653 21.0159L5.90819 21.4244L5.92589 21.4369L5.9446 21.4478L6.19653 21.0159ZM6.19655 21.0159L6.47352 20.5996L6.46124 20.5914L6.44849 20.584L6.19655 21.0159ZM21.6486 31.2968L21.9486 30.8968L21.9373 30.8883L21.9256 30.8805L21.6486 31.2968ZM21.6486 31.2968L21.3486 31.6968L21.3599 31.7053L21.3716 31.7131L21.6486 31.2968ZM23.2326 32.098L23.1959 31.5994L23.1959 31.5994L23.2326 32.098ZM23.9537 31.708L23.5565 31.4043L23.5565 31.4043L23.9537 31.708ZM24.1506 29.9437L24.6506 29.9398L24.6506 29.9398L24.1506 29.9437ZM24.0956 22.734V22.234H23.5918L23.5956 22.7379L24.0956 22.734ZM24.0402 15.4743L23.5402 15.4782L23.544 15.9743H24.0402V15.4743ZM23.9919 9.14069L23.4919 9.14069L23.4919 9.1445L23.9919 9.14069ZM23.9919 9.14066H24.4919L24.4919 9.13685L23.9919 9.14066ZM23.7681 7.37961L24.1606 7.06981L24.1606 7.06981L23.7681 7.37961ZM23.0412 7.00099L23.0701 6.50182L23.0701 6.50182L23.0412 7.00099ZM21.4696 7.82699L21.1862 7.41506L21.1778 7.42085L21.1696 7.42699L21.4696 7.82699ZM21.4696 7.82699L21.753 8.23892L21.7614 8.23312L21.7696 8.22699L21.4696 7.82699ZM28.5357 0.526979L10.0408 0.50002L10.0394 1.50002L28.5343 1.52698L28.5357 0.526979ZM38.0219 10.0408C38.0295 4.79411 33.7824 0.534627 28.5357 0.526979L28.5343 1.52698C33.2287 1.53382 37.0287 5.34494 37.0219 10.0394L38.0219 10.0408ZM38.0162 13.8958L38.0219 10.0408L37.0219 10.0394L37.0162 13.8944L38.0162 13.8958ZM34.5162 14.3951H37.5162V13.3951H34.5162V14.3951ZM34.0219 10.035L34.0162 13.8944L35.0162 13.8958L35.0219 10.0364L34.0219 10.035ZM28.5299 4.52697C31.5674 4.5314 34.0263 6.99742 34.0219 10.035L35.0219 10.0364C35.0271 6.4466 32.1212 3.53221 28.5313 3.52698L28.5299 4.52697ZM10.035 4.50002L28.5299 4.52697L28.5313 3.52698L10.0365 3.50002L10.035 4.50002ZM4.52698 9.992C4.53142 6.95443 6.99744 4.49559 10.035 4.50002L10.0365 3.50002C6.44662 3.49478 3.53222 6.40069 3.52698 9.99054L4.52698 9.992ZM4.50002 28.4653L4.52698 9.992L3.52698 9.99054L3.50002 28.4639L4.50002 28.4653ZM9.99199 33.9733C6.95442 33.9689 4.49558 31.5029 4.50002 28.4653L3.50002 28.4639C3.49478 32.0537 6.40068 34.9681 9.99053 34.9733L9.99199 33.9733ZM28.4869 34.0003L9.99199 33.9733L9.99053 34.9733L28.4854 35.0003L28.4869 34.0003ZM33.9949 28.5083C33.9905 31.5459 31.5244 34.0047 28.4869 34.0003L28.4854 35.0003C32.0753 35.0055 34.9896 32.0996 34.9949 28.5098L33.9949 28.5083ZM34.0007 24.56L33.9949 28.5083L34.9949 28.5098L35.0007 24.5615L34.0007 24.56ZM37.5007 24.0608H34.5007V25.0608H37.5007V24.0608ZM37.9949 28.5141L38.0007 24.5615L37.0007 24.56L36.9949 28.5127L37.9949 28.5141ZM28.481 38.0003C33.7277 38.0079 37.9872 33.7608 37.9949 28.5141L36.9949 28.5127C36.988 33.2071 33.1769 37.0071 28.4825 37.0003L28.481 38.0003ZM9.98615 37.9733L28.481 38.0003L28.4825 37.0003L9.98761 36.9733L9.98615 37.9733ZM0.50002 28.4595C0.492362 33.7062 4.73945 37.9657 9.98615 37.9733L9.98761 36.9733C5.2932 36.9665 1.49317 33.1554 1.50002 28.461L0.50002 28.4595ZM0.526986 9.98617L0.50002 28.4595L1.50002 28.461L1.52699 9.98763L0.526986 9.98617ZM10.0408 0.50002C4.79414 0.492372 0.534645 4.73947 0.526986 9.98617L1.52699 9.98763C1.53384 5.29321 5.34497 1.49318 10.0394 1.50002L10.0408 0.50002ZM6.45355 18.7651L6.45356 18.7651L5.89886 17.9331L5.89885 17.9331L6.45355 18.7651ZM6.45351 18.7652L6.45355 18.7651L5.89885 17.9331L5.89881 17.9331L6.45351 18.7652ZM5.53449 19.5019C5.54458 19.4762 5.57871 19.4134 5.73559 19.2827C5.8936 19.1511 6.11972 18.9949 6.45957 18.761L5.89275 17.9372C5.56894 18.16 5.2973 18.3463 5.09552 18.5144C4.89261 18.6834 4.70493 18.8777 4.60324 19.1376L5.53449 19.5019ZM5.53731 19.8734C5.48871 19.7546 5.48768 19.6216 5.53449 19.5019L4.60324 19.1376C4.46285 19.4964 4.46589 19.8954 4.61175 20.252L5.53731 19.8734ZM6.47348 20.5996C6.13009 20.3711 5.90162 20.2185 5.74165 20.0894C5.58281 19.9612 5.54776 19.899 5.53731 19.8734L4.61175 20.252C4.71742 20.5104 4.90809 20.7017 5.11356 20.8675C5.3179 21.0325 5.59236 21.2145 5.91954 21.4322L6.47348 20.5996ZM6.48487 20.6074L6.48485 20.6074L5.90817 21.4244L5.90819 21.4244L6.48487 20.6074ZM6.44849 20.584L6.44847 20.584L5.9446 21.4478L5.94462 21.4478L6.44849 20.584ZM21.9256 30.8805L6.47352 20.5996L5.91959 21.4322L21.3716 31.7131L21.9256 30.8805ZM21.9486 30.8968L21.9486 30.8968L21.3486 31.6968L21.3486 31.6968L21.9486 30.8968ZM23.1959 31.5994C23.1724 31.6011 23.0892 31.5967 22.8601 31.4733C22.6357 31.3524 22.348 31.1616 21.9256 30.8805L21.3716 31.7131C21.7773 31.9829 22.1106 32.2053 22.3857 32.3536C22.6561 32.4993 22.9508 32.6201 23.2693 32.5967L23.1959 31.5994ZM23.5565 31.4043C23.4697 31.5179 23.3384 31.5889 23.1959 31.5994L23.2693 32.5967C23.6968 32.5652 24.0905 32.3523 24.3509 32.0118L23.5565 31.4043ZM23.6506 29.9475C23.6545 30.4549 23.6566 30.8002 23.6349 31.0542C23.6127 31.3135 23.5708 31.3856 23.5565 31.4043L24.3509 32.0118C24.5448 31.7581 24.6051 31.4453 24.6313 31.1393C24.6579 30.8278 24.6543 30.4271 24.6506 29.9398L23.6506 29.9475ZM23.5956 22.7379L23.6506 29.9475L24.6506 29.9398L24.5956 22.7302L23.5956 22.7379ZM32.8193 22.234H24.0956V23.234H32.8193V22.234ZM33.3193 21.734C33.3193 22.0102 33.0955 22.234 32.8193 22.234V23.234C33.6478 23.234 34.3193 22.5625 34.3193 21.734H33.3193ZM33.3193 16.4743V21.734H34.3193V16.4743H33.3193ZM32.8193 15.9743C33.0955 15.9743 33.3193 16.1982 33.3193 16.4743H34.3193C34.3193 15.6459 33.6478 14.9743 32.8193 14.9743V15.9743ZM24.0402 15.9743H32.8193V14.9743H24.0402V15.9743ZM23.4919 9.1445L23.5402 15.4782L24.5402 15.4705L24.4919 9.13687L23.4919 9.1445ZM23.4919 9.14066V9.14069H24.4919V9.14066H23.4919ZM23.3757 7.68941C23.3902 7.70781 23.4332 7.77919 23.4593 8.03816C23.4849 8.29178 23.488 8.63703 23.4919 9.14448L24.4919 9.13685C24.4882 8.64962 24.4856 8.24887 24.4543 7.9379C24.4235 7.63227 24.3585 7.32045 24.1606 7.06981L23.3757 7.68941ZM23.0123 7.50015C23.1549 7.50841 23.2872 7.5773 23.3757 7.68941L24.1606 7.06981C23.895 6.73331 23.498 6.52659 23.0701 6.50182L23.0123 7.50015ZM21.753 8.23891C22.1711 7.95124 22.4559 7.75594 22.6784 7.63151C22.9056 7.50446 22.9888 7.49879 23.0123 7.50015L23.0701 6.50182C22.7513 6.48337 22.4585 6.60876 22.1903 6.7587C21.9175 6.91125 21.5876 7.13886 21.1862 7.41506L21.753 8.23891ZM21.7696 8.22699L21.7696 8.22699L21.1696 7.42699L21.1696 7.42699L21.7696 8.22699ZM6.45962 18.761L21.753 8.23892L21.1862 7.41507L5.89281 17.9372L6.45962 18.761Z" fill="#505160"/>
</svg>
