<svg width="44" height="44" viewBox="0 0 44 44" fill="none" xmlns="http://www.w3.org/2000/svg">
	<path fill-rule="evenodd" clip-rule="evenodd" d="M9.05041 9.78222e-06L34.6067 0.0372858C39.5773 0.0445357 43.6008 4.07985 43.5936 9.0504L43.5846 15.1962H40.5846L40.5936 9.04603C40.5984 5.73232 37.916 3.04212 34.6023 3.03728L9.04603 3.00001C5.73233 2.99517 3.04212 5.67755 3.03728 8.99126L3.00001 34.5449C2.99517 37.8586 5.67754 40.5488 8.99124 40.5536L34.5476 40.5909C37.8613 40.5957 40.5515 37.9133 40.5563 34.5996L40.5654 28.34H43.5654L43.5563 34.604C43.549 39.5746 39.5137 43.5981 34.5432 43.5909L8.98686 43.5536C4.0163 43.5464 -0.00724121 39.511 9.78509e-06 34.5405L0.0372871 8.98688C0.0445381 4.01633 4.07984 -0.00724017 9.05041 9.78222e-06ZM28.7936 11.4379L24.4345 11.4379V9.86083C24.4345 8.11881 23.1334 6.70662 21.5284 6.70662C19.9234 6.70662 18.6223 8.11881 18.6223 9.86083L18.6223 9.87084V11.4379L19.0111 11.4379H14.2632V15.3807H28.7936V11.4379ZM21.5283 9.86084C21.9295 9.86084 22.2548 9.50779 22.2548 9.07229C22.2548 8.63678 21.9295 8.28373 21.5283 8.28373C21.127 8.28373 20.8017 8.63678 20.8017 9.07229C20.8017 9.50779 21.127 9.86084 21.5283 9.86084ZM17.1692 9.59798H10.1775H9.17751V10.598V35.3431V36.3431H10.1775H32.8793H33.8793V35.3431V10.598V9.59798H32.8793H25.8875V10.598H32.8793V35.3431H10.1775V10.598H17.1692V9.59798ZM30.2465 11.7665H31.6995V15.968L31.6996 15.968V34.1746H11.3569V15.968V11.7665H12.81V15.968L30.2465 15.968V11.7665ZM14.2632 18.9949H16.4428V21.1634H14.2632V18.9949ZM28.7936 18.9949H17.1692V21.1634H28.7936V18.9949ZM16.4428 29.8375H14.2632V32.006H16.4428V29.8375ZM28.7936 29.8375H17.1692V32.006H28.7936V29.8375ZM16.4428 26.2233H14.2632V28.3918H16.4428V26.2233ZM17.1692 26.2233H28.7936V28.3918H17.1692V26.2233ZM16.4428 22.6091H14.2632V24.7776H16.4428V22.6091ZM17.1692 22.6091H28.7936V24.7776H17.1692V22.6091Z" fill="#505160"/>
</svg>
