<svg width="18" height="18" viewBox="0 0 37 37" fill="none" xmlns="http://www.w3.org/2000/svg">
    <path fill-rule="evenodd" clip-rule="evenodd"
          d="M9.04011 1.00047e-05L27.535 0.0269691C32.5055 0.0342145 36.5291 4.06952 36.5219 9.04008L36.5162 12.8951H33.5162L33.5219 9.0357C33.5267 5.722 30.8443 3.0318 27.5306 3.02697L9.03573 3.00001C5.72203 2.99518 3.03182 5.67755 3.02698 8.99126L3.00002 27.4646C2.99518 30.7783 5.67755 33.4685 8.99126 33.4733L27.4861 33.5003C30.7998 33.5051 33.4901 30.8227 33.4949 27.509L33.5007 23.5608H36.5007L36.4949 27.5134C36.4876 32.484 32.4523 36.5075 27.4818 36.5003L8.98688 36.4733C4.01632 36.4661 -0.00723608 32.4308 1.95332e-05 27.4602L0.0269854 8.98689C0.034241 4.01633 4.06955 -0.00723535 9.04011 1.00047e-05ZM25.1348 7.60979C25.9133 6.82615 27.1796 6.82193 27.9632 7.60037L29.3493 8.97726C30.1206 9.74342 30.1368 10.9821 29.395 11.7682L29.4285 11.8006L28.0379 13.238L26.7987 12.0391C26.7045 11.9735 26.6146 11.8988 26.5303 11.8151L25.1536 10.4475L23.7257 9.06604L25.1132 7.63195L25.1348 7.60979ZM23.0304 9.78473L27.3426 13.9567L15.5221 26.1745L15.3544 26.0123C15.2799 26.311 15.0697 26.5766 14.7453 26.7021L10.5179 28.3381C9.7225 28.6459 8.9316 27.8807 9.21295 27.0756L10.7083 22.7964C10.823 22.4681 11.0815 22.2491 11.3775 22.1648L11.2099 22.0026L23.0304 9.78473ZM23.0538 11.1988L23.7725 11.8941L13.3426 22.6745L12.6239 21.9792L23.0538 11.1988ZM25.9285 13.98L25.2098 13.2847L14.78 24.0652L15.4987 24.7605L25.9285 13.98Z"
          fill="#505160"/>
</svg>

