<svg xmlns="http://www.w3.org/2000/svg"
		 viewBox="0 0 48 48"
		 width="48px"
		 height="48px"
>
	<path
				fill="#274772"
				d="M24,5C21.361,5,13.33,5,8.89,9.054C6.246,11.688,5,15.494,5,21v3c0,5.506,1.246,9.312,3.921,11.976 c1.332,1.215,3.148,2.186,5.368,2.857L15,39.047v5.328C15,45,15.181,45,15.241,45c0.123,0,0.32-0.039,0.694-0.371 c0.09-0.089,0.75-0.803,3.96-4.399l0.324-0.363l0.485,0.031C21.779,39.965,22.888,40,24,40c2.639,0,10.67,0,15.11-4.055 C41.753,33.311,43,29.505,43,24v-3c0-5.506-1.246-9.312-3.921-11.976C34.67,5,26.639,5,24,5z" />
	<path fill="#fff"
				d="M33.451 28.854c-1.111-.936-1.624-1.219-3.158-2.14C29.654 26.331 28.68 26 28.169 26c-.349 0-.767.267-1.023.523C26.49 27.179 26.275 28 25.125 28c-1.125 0-3.09-1.145-4.5-2.625C19.145 23.965 18 22 18 20.875c0-1.15.806-1.38 1.462-2.037C19.718 18.583 20 18.165 20 17.816c0-.511-.331-1.47-.714-2.109-.921-1.535-1.203-2.048-2.14-3.158-.317-.376-.678-.548-1.056-.549-.639-.001-1.478.316-2.046.739-.854.637-1.747 1.504-1.986 2.584-.032.147-.051.295-.057.443-.046 1.125.396 2.267.873 3.234 1.123 2.279 2.609 4.485 4.226 6.455.517.63 1.08 1.216 1.663 1.782.566.582 1.152 1.145 1.782 1.663 1.97 1.617 4.176 3.103 6.455 4.226.958.472 2.086.906 3.2.874.159-.005.318-.023.477-.058 1.08-.238 1.947-1.132 2.584-1.986.423-.568.74-1.406.739-2.046C33.999 29.532 33.827 29.171 33.451 28.854zM34 24c-.552 0-1-.448-1-1v-1c0-4.962-4.038-9-9-9-.552 0-1-.448-1-1s.448-1 1-1c6.065 0 11 4.935 11 11v1C35 23.552 34.552 24 34 24zM27.858 22c-.444 0-.85-.298-.967-.748-.274-1.051-1.094-1.872-2.141-2.142-.535-.139-.856-.684-.718-1.219.138-.534.682-.855 1.219-.718 1.748.453 3.118 1.822 3.575 3.574.139.535-.181 1.08-.715 1.22C28.026 21.989 27.941 22 27.858 22z" />
	<path fill="#fff"
				d="M31,23c-0.552,0-1-0.448-1-1c0-3.188-2.494-5.818-5.678-5.986c-0.552-0.029-0.975-0.5-0.946-1.051 c0.029-0.552,0.508-0.976,1.051-0.946C28.674,14.241,32,17.748,32,22C32,22.552,31.552,23,31,23z" />
	</svg>