<svg width="18" height="18" viewBox="0 0 18 18" fill="none" xmlns="http://www.w3.org/2000/svg">
	<path d="M5.89386 1.55245C5.09585 1.5901 4.55089 1.71745 4.07449 1.90465C3.58143 2.09681 3.16353 2.35466 2.74772 2.77196C2.33192 3.18926 2.07587 3.60746 1.88507 4.10126C1.70041 4.57871 1.57531 5.12412 1.54006 5.92257C1.50481 6.72102 1.49701 6.97767 1.50091 9.01438C1.50481 11.0511 1.51381 11.3064 1.55251 12.1065C1.59061 12.9043 1.71751 13.4491 1.90472 13.9257C2.09717 14.4187 2.35472 14.8365 2.77218 15.2525C3.18963 15.6684 3.60753 15.9239 4.10254 16.115C4.57954 16.2993 5.1251 16.425 5.92341 16.46C6.72172 16.4949 6.97867 16.503 9.01479 16.4991C11.0509 16.4952 11.3073 16.4862 12.1072 16.4483C12.9072 16.4103 13.4491 16.2825 13.9258 16.0962C14.4189 15.9033 14.8369 15.6462 15.2526 15.2286C15.6683 14.811 15.9242 14.3925 16.1148 13.8984C16.2996 13.4214 16.4252 12.8758 16.4598 12.0781C16.4948 11.2776 16.503 11.022 16.4991 8.98558C16.4952 6.94917 16.4861 6.69387 16.4481 5.89407C16.4102 5.09427 16.2831 4.55111 16.0961 4.07426C15.9033 3.58121 15.6461 3.16376 15.2288 2.74751C14.8114 2.33126 14.3926 2.07551 13.8987 1.8853C13.4214 1.70065 12.8761 1.5748 12.0778 1.5403C11.2795 1.5058 11.0226 1.49695 8.98569 1.50085C6.94882 1.50475 6.69382 1.51345 5.89386 1.55245ZM5.98146 15.1107C5.2502 15.0789 4.85315 14.9574 4.58854 14.8557C4.23814 14.7207 3.98854 14.5575 3.72483 14.2963C3.46113 14.0352 3.29913 13.7847 3.16233 13.435C3.05958 13.1704 2.93583 12.7738 2.90163 12.0426C2.86443 11.2522 2.85663 11.0149 2.85228 9.01258C2.84793 7.01022 2.85558 6.77322 2.89023 5.98257C2.92143 5.25192 3.04368 4.85441 3.14523 4.58996C3.28023 4.23911 3.44283 3.98996 3.70458 3.72641C3.96634 3.46286 4.21609 3.30056 4.56604 3.16376C4.83035 3.06056 5.22695 2.93786 5.95791 2.90306C6.74887 2.86556 6.98587 2.85806 8.98794 2.85371C10.99 2.84936 11.2276 2.85686 12.0189 2.89166C12.7495 2.92346 13.1472 3.04451 13.4113 3.14666C13.7619 3.28166 14.0113 3.44381 14.2749 3.70601C14.5384 3.96821 14.7009 4.21706 14.8377 4.56776C14.941 4.83131 15.0637 5.22777 15.0982 5.95917C15.1359 6.75012 15.1445 6.98727 15.1481 8.98918C15.1517 10.9911 15.1446 11.2288 15.11 12.0192C15.078 12.7504 14.9568 13.1476 14.8549 13.4125C14.7199 13.7628 14.5572 14.0125 14.2953 14.2759C14.0334 14.5393 13.7839 14.7016 13.4338 14.8384C13.1698 14.9415 12.7728 15.0645 12.0424 15.0993C11.2515 15.1365 11.0145 15.1443 9.01164 15.1487C7.00882 15.153 6.77257 15.1449 5.98161 15.1107M12.0957 4.99152C12.096 5.16953 12.149 5.34346 12.2482 5.49131C12.3474 5.63915 12.4881 5.75427 12.6527 5.82211C12.8173 5.88995 12.9983 5.90745 13.1728 5.87241C13.3474 5.83736 13.5076 5.75135 13.6332 5.62524C13.7589 5.49914 13.8443 5.3386 13.8787 5.16394C13.9131 4.98928 13.895 4.80834 13.8265 4.644C13.7581 4.47967 13.6424 4.33932 13.4942 4.24071C13.346 4.1421 13.1719 4.08966 12.9939 4.09001C12.7552 4.09049 12.5265 4.18573 12.3581 4.35478C12.1897 4.52384 12.0953 4.75287 12.0957 4.99152ZM5.1491 9.00748C5.1533 11.1345 6.88072 12.8548 9.00729 12.8508C11.1339 12.8467 12.8554 11.1195 12.8514 8.99248C12.8473 6.86547 11.1195 5.14467 8.99259 5.14887C6.86572 5.15307 5.14505 6.88077 5.1491 9.00748ZM6.50001 9.00478C6.49903 8.51032 6.64471 8.02667 6.9186 7.61499C7.1925 7.20332 7.58232 6.88211 8.03878 6.69198C8.49523 6.50185 8.99781 6.45135 9.48297 6.54685C9.96813 6.64236 10.4141 6.87958 10.7644 7.22853C11.1147 7.57748 11.3537 8.02247 11.4511 8.50724C11.5486 8.99201 11.5001 9.49479 11.3117 9.95199C11.1234 10.4092 10.8038 10.8003 10.3932 11.0758C9.98258 11.3513 9.49951 11.4989 9.00504 11.4999C8.67671 11.5006 8.35147 11.4366 8.04788 11.3116C7.74429 11.1865 7.4683 11.0029 7.23568 10.7712C7.00306 10.5395 6.81836 10.2643 6.69213 9.96118C6.56591 9.65809 6.50062 9.3331 6.50001 9.00478Z" fill="#90A0B7"/>
</svg>
