<svg width="24" height="24" viewBox="0 0 18 18" fill="none" xmlns="http://www.w3.org/2000/svg">
	<g clip-path="url(#clip0_4_1033)">
		<path d="M1.5 12.675C1.5 11.693 1.5 11.202 1.72104 10.8413C1.84472 10.6394 2.01442 10.4697 2.21625 10.346C2.57696 10.125 3.06797 10.125 4.05 10.125H4.875C6.28921 10.125 6.99632 10.125 7.43566 10.5643C7.875 11.0037 7.875 11.7108 7.875 13.125V13.95C7.875 14.932 7.875 15.423 7.65396 15.7837C7.53028 15.9856 7.36058 16.1553 7.15875 16.279C6.79804 16.5 6.30703 16.5 5.325 16.5C3.85196 16.5 3.11543 16.5 2.57438 16.1684C2.27163 15.9829 2.01708 15.7284 1.83156 15.4256C1.5 14.8846 1.5 14.148 1.5 12.675Z" stroke="#90A0B7" stroke-width="1.3"/>
		<path d="M10.125 4.05C10.125 3.06797 10.125 2.57696 10.346 2.21625C10.4697 2.01442 10.6394 1.84472 10.8413 1.72104C11.202 1.5 11.693 1.5 12.675 1.5C14.148 1.5 14.8846 1.5 15.4256 1.83156C15.7284 2.01708 15.9829 2.27163 16.1684 2.57438C16.5 3.11543 16.5 3.85196 16.5 5.325C16.5 6.30703 16.5 6.79804 16.279 7.15875C16.1553 7.36058 15.9856 7.53028 15.7837 7.65396C15.423 7.875 14.932 7.875 13.95 7.875H13.125C11.7108 7.875 11.0037 7.875 10.5643 7.43566C10.125 6.99632 10.125 6.28921 10.125 4.875V4.05Z" stroke="#90A0B7" stroke-width="1.3"/>
		<path d="M12.375 4.6875C12.375 4.30094 12.375 4.10767 12.4718 3.9712C12.506 3.92304 12.548 3.881 12.5962 3.84683C12.7327 3.75 12.9259 3.75 13.3125 3.75C13.6991 3.75 13.8923 3.75 14.0288 3.84683C14.077 3.881 14.119 3.92304 14.1532 3.9712C14.25 4.10767 14.25 4.30094 14.25 4.6875C14.25 5.07406 14.25 5.26733 14.1532 5.4038C14.119 5.45196 14.077 5.494 14.0288 5.52817C13.8923 5.625 13.6991 5.625 13.3125 5.625C12.9259 5.625 12.7327 5.625 12.5962 5.52817C12.548 5.494 12.506 5.45196 12.4718 5.4038C12.375 5.26733 12.375 5.07406 12.375 4.6875Z" fill="#90A0B7"/>
		<path d="M9.475 16.5C9.475 16.859 9.76601 17.15 10.125 17.15C10.484 17.15 10.775 16.859 10.775 16.5H9.475ZM10.7916 10.3778L11.1528 10.9183L11.1528 10.9183L10.7916 10.3778ZM10.3778 10.7916L9.83734 10.4305L9.83734 10.4305L10.3778 10.7916ZM14.25 9.475H12.75V10.775H14.25V9.475ZM9.475 14.25V16.5H10.775V14.25H9.475ZM12.75 9.475C12.2369 9.475 11.8031 9.47421 11.4519 9.50994C11.0899 9.54676 10.7443 9.62769 10.4305 9.83734L11.1528 10.9183C11.2173 10.8751 11.3242 10.8296 11.5835 10.8033C11.8536 10.7758 12.2098 10.775 12.75 10.775V9.475ZM10.775 12.75C10.775 12.2098 10.7758 11.8536 10.8033 11.5835C10.8296 11.3242 10.8751 11.2173 10.9183 11.1528L9.83734 10.4305C9.62769 10.7443 9.54676 11.0899 9.50994 11.4519C9.47421 11.8031 9.475 12.2369 9.475 12.75H10.775ZM10.4305 9.83734C10.1958 9.9942 9.9942 10.1958 9.83734 10.4305L10.9183 11.1528C10.9803 11.06 11.06 10.9803 11.1528 10.9183L10.4305 9.83734Z" fill="#90A0B7"/>
		<path d="M17.15 10.125C17.15 9.76601 16.859 9.475 16.5 9.475C16.141 9.475 15.85 9.76601 15.85 10.125H17.15ZM15.574 16.3858L15.8228 16.9863L15.8228 16.9863L15.574 16.3858ZM16.3858 15.574L15.7853 15.3253L15.7853 15.3253L16.3858 15.574ZM12.75 17.15H14.25V15.85H12.75V17.15ZM17.15 12.75V10.125H15.85V12.75H17.15ZM14.25 17.15C14.5906 17.15 14.8785 17.1504 15.115 17.1342C15.3573 17.1177 15.5925 17.0817 15.8228 16.9863L15.3253 15.7853C15.2799 15.8041 15.2026 15.8252 15.0265 15.8372C14.8446 15.8496 14.6083 15.85 14.25 15.85V17.15ZM15.85 14.25C15.85 14.6083 15.8496 14.8446 15.8372 15.0265C15.8252 15.2026 15.8041 15.2799 15.7853 15.3253L16.9863 15.8228C17.0817 15.5925 17.1177 15.3573 17.1342 15.115C17.1504 14.8785 17.15 14.5906 17.15 14.25H15.85ZM15.8228 16.9863C16.3496 16.7681 16.7681 16.3496 16.9863 15.8228L15.7853 15.3253C15.699 15.5336 15.5336 15.699 15.3253 15.7853L15.8228 16.9863Z" fill="#90A0B7"/>
		<path d="M1.5 5.325C1.5 3.85196 1.5 3.11543 1.83156 2.57438C2.01708 2.27163 2.27163 2.01708 2.57438 1.83156C3.11543 1.5 3.85196 1.5 5.325 1.5C6.30703 1.5 6.79804 1.5 7.15875 1.72104C7.36058 1.84472 7.53028 2.01442 7.65396 2.21625C7.875 2.57696 7.875 3.06797 7.875 4.05V4.875C7.875 6.28921 7.875 6.99632 7.43566 7.43566C6.99632 7.875 6.28921 7.875 4.875 7.875H4.05C3.06797 7.875 2.57696 7.875 2.21625 7.65396C2.01442 7.53028 1.84472 7.36058 1.72104 7.15875C1.5 6.79804 1.5 6.30703 1.5 5.325Z" stroke="#90A0B7" stroke-width="1.3"/>
		<path d="M3.75 4.6875C3.75 4.30094 3.75 4.10767 3.84683 3.9712C3.881 3.92304 3.92304 3.881 3.9712 3.84683C4.10767 3.75 4.30094 3.75 4.6875 3.75C5.07406 3.75 5.26733 3.75 5.4038 3.84683C5.45196 3.881 5.494 3.92304 5.52817 3.9712C5.625 4.10767 5.625 4.30094 5.625 4.6875C5.625 5.07406 5.625 5.26733 5.52817 5.4038C5.494 5.45196 5.45196 5.494 5.4038 5.52817C5.26733 5.625 5.07406 5.625 4.6875 5.625C4.30094 5.625 4.10767 5.625 3.9712 5.52817C3.92304 5.494 3.881 5.45196 3.84683 5.4038C3.75 5.26733 3.75 5.07406 3.75 4.6875Z" fill="#90A0B7"/>
		<path d="M3.75 13.3125C3.75 12.9259 3.75 12.7327 3.84683 12.5962C3.881 12.548 3.92304 12.506 3.9712 12.4718C4.10767 12.375 4.30094 12.375 4.6875 12.375C5.07406 12.375 5.26733 12.375 5.4038 12.4718C5.45196 12.506 5.494 12.548 5.52817 12.5962C5.625 12.7327 5.625 12.9259 5.625 13.3125C5.625 13.6991 5.625 13.8923 5.52817 14.0288C5.494 14.077 5.45196 14.119 5.4038 14.1532C5.26733 14.25 5.07406 14.25 4.6875 14.25C4.30094 14.25 4.10767 14.25 3.9712 14.1532C3.92304 14.119 3.881 14.077 3.84683 14.0288C3.75 13.8923 3.75 13.6991 3.75 13.3125Z" fill="#90A0B7"/>
		<path d="M12 13.3125C12 12.7858 12 12.5225 12.1264 12.3333C12.1811 12.2514 12.2514 12.1811 12.3333 12.1264C12.5225 12 12.7858 12 13.3125 12C13.8392 12 14.1025 12 14.2917 12.1264C14.3736 12.1811 14.4439 12.2514 14.4986 12.3333C14.625 12.5225 14.625 12.7858 14.625 13.3125C14.625 13.8392 14.625 14.1025 14.4986 14.2917C14.4439 14.3736 14.3736 14.4439 14.2917 14.4986C14.1025 14.625 13.8392 14.625 13.3125 14.625C12.7858 14.625 12.5225 14.625 12.3333 14.4986C12.2514 14.4439 12.1811 14.3736 12.1264 14.2917C12 14.1025 12 13.8392 12 13.3125Z" fill="#90A0B7"/>
	</g>
	<defs>
		<clipPath id="clip0_4_1033">
			<rect width="18" height="18" rx="5" fill="white"/>
		</clipPath>
	</defs>
</svg>
