<svg width="19" height="19" viewBox="0 0 19 19" fill="none" xmlns="http://www.w3.org/2000/svg">
	<path fill-rule="evenodd" clip-rule="evenodd" d="M9.30273 0.302246C14.2733 0.302246 18.3027 4.33168 18.3027 9.30225C18.3027 14.2728 14.2733 18.3022 9.30273 18.3022C7.86415 18.3022 6.50271 17.9643 5.29514 17.3628C5.11494 17.273 4.93094 17.254 4.77615 17.2954L2.91248 17.7941C1.63671 18.1354 0.469568 16.9683 0.810917 15.6925L1.30956 13.8288C1.35098 13.674 1.33194 13.49 1.24219 13.3098C0.64072 12.1023 0.302734 10.7408 0.302734 9.30225C0.302734 4.33168 4.33217 0.302246 9.30273 0.302246ZM17.0469 9.30225C17.0469 5.02525 13.5797 1.55806 9.30273 1.55806C5.02574 1.55806 1.55855 5.02525 1.55855 9.30225C1.55855 10.5422 1.8495 11.7124 2.36628 12.75C2.5737 13.1664 2.65357 13.6643 2.52271 14.1534L2.02406 16.0171C1.93247 16.3594 2.24561 16.6725 2.58789 16.5809L4.45155 16.0823C4.94065 15.9514 5.4386 16.0313 5.85503 16.2387C6.89258 16.7555 8.06278 17.0464 9.30273 17.0464C13.5797 17.0464 17.0469 13.5792 17.0469 9.30225ZM8.87895 4.92954C8.69057 4.91242 8.52398 5.05124 8.50685 5.23962C8.48975 5.42772 8.62814 5.5941 8.8161 5.61164L8.8156 5.61159L8.81464 5.6115L8.81386 5.61142C8.81384 5.61142 8.81483 5.61153 8.81679 5.61178C8.8207 5.61228 8.82853 5.61335 8.84007 5.61528C8.86316 5.61912 8.90114 5.62637 8.95256 5.63923C9.05534 5.66492 9.21211 5.7131 9.41116 5.80157C9.80847 5.97815 10.379 6.31735 11.0276 6.96589C11.6761 7.61443 12.0153 8.18498 12.1919 8.58229C12.2804 8.78135 12.3285 8.93811 12.3542 9.04089C12.3671 9.09231 12.3743 9.1303 12.3782 9.15338C12.3801 9.16493 12.3812 9.17275 12.3817 9.17667L12.382 9.17924C12.4005 9.36623 12.5664 9.50365 12.7538 9.4866C12.9422 9.46948 13.081 9.30289 13.0639 9.11451L12.7228 9.14551C13.0639 9.11451 13.0639 9.11431 13.0639 9.11411L13.0638 9.11369L13.0638 9.11278L13.0635 9.11066L13.063 9.10524L13.0611 9.08976C13.0596 9.07741 13.0572 9.06101 13.0538 9.04077C13.0471 9.00029 13.0362 8.94443 13.0188 8.87476C12.9839 8.73536 12.9231 8.54096 12.8178 8.30409C12.6069 7.82955 12.2196 7.1892 11.5119 6.48153C10.8043 5.77386 10.1639 5.38652 9.68936 5.17562C9.4525 5.07034 9.2581 5.00954 9.1187 4.97469C9.04903 4.95727 8.99317 4.94635 8.95268 4.93961C8.93244 4.93623 8.91605 4.9339 8.90369 4.93232L8.88822 4.93048L8.8828 4.92991L8.88068 4.9297L8.87976 4.92962L8.87934 4.92958C8.87914 4.92956 8.87895 4.92954 8.84794 5.27063L8.87895 4.92954ZM9.26457 6.55584C9.08269 6.50388 8.89313 6.60919 8.84116 6.79107C8.78964 6.9714 8.89273 7.15929 9.07177 7.21312L9.0767 7.21481C9.08356 7.21725 9.09707 7.22228 9.1168 7.23074C9.15622 7.24764 9.22072 7.27828 9.30684 7.32925C9.47888 7.43107 9.73883 7.61497 10.0585 7.93461C10.3781 8.25425 10.562 8.5142 10.6638 8.68624C10.7148 8.77237 10.7454 8.83686 10.7623 8.87629C10.7708 8.89602 10.7758 8.90952 10.7783 8.91639L10.78 8.92131C10.8338 9.10035 11.0217 9.20344 11.202 9.15192C11.3839 9.09995 11.4892 8.91039 11.4372 8.72851L11.1079 8.8226C11.4372 8.72851 11.4372 8.72835 11.4371 8.72819L11.437 8.72785L11.4368 8.72716L11.4364 8.72563L11.4353 8.72209L11.4325 8.71306C11.4303 8.70617 11.4275 8.69757 11.4238 8.68732C11.4165 8.66681 11.4062 8.6397 11.3919 8.60646C11.3634 8.53993 11.3194 8.44902 11.2533 8.33736C11.121 8.11385 10.9013 7.80871 10.5428 7.45025C10.1844 7.09178 9.87923 6.87205 9.65572 6.73976C9.54406 6.67368 9.45315 6.62965 9.38663 6.60113C9.35338 6.58689 9.32627 6.57654 9.30576 6.56926C9.29551 6.56562 9.28691 6.56275 9.28003 6.56055L9.27099 6.55774L9.26745 6.55668L9.26593 6.55623L9.26523 6.55603L9.26489 6.55594C9.26473 6.55589 9.26457 6.55584 9.17048 6.88516L9.26457 6.55584ZM4.83718 5.76932C5.39712 5.1798 6.32333 5.29025 6.7862 5.94491L7.36204 6.75936C7.73227 7.28299 7.70099 8.01099 7.25914 8.47617L7.14733 8.59389L7.14635 8.59654C7.14044 8.61315 7.1255 8.66602 7.1402 8.76637C7.17068 8.9744 7.33127 9.39712 7.98322 10.0835C8.63723 10.772 9.03392 10.9343 9.21774 10.9642C9.29705 10.9771 9.33853 10.9659 9.35175 10.9612L9.53836 10.7648C9.93737 10.3447 10.5595 10.2619 11.0611 10.5506L11.9336 11.0528C12.6793 11.482 12.8528 12.532 12.2569 13.1594L11.6082 13.8423C11.4057 14.0555 11.1296 14.2374 10.7885 14.2711C9.95561 14.3533 8.02616 14.2462 6.00344 12.1167C4.11599 10.1296 3.75743 8.40116 3.71211 7.55669C3.68971 7.13946 3.8757 6.78157 4.1204 6.52395L4.83718 5.76932ZM6.87984 8.3782L6.63151 8.14232L6.76248 8.00443C6.96594 7.79023 6.9955 7.42746 6.80273 7.15481L6.22689 6.34036C5.99292 6.00944 5.57259 5.9897 5.33383 6.24107L4.61706 6.99569C4.46573 7.15502 4.38633 7.33763 4.39611 7.51998C4.43312 8.20945 4.73003 9.7814 6.5001 11.645C8.35605 13.5989 10.0659 13.6541 10.7212 13.5894C10.8508 13.5766 10.9841 13.5047 11.1115 13.3706L11.7602 12.6876C12.0401 12.393 11.9667 11.8622 11.5919 11.6465L10.7194 11.1443C10.4853 11.0095 10.211 11.0512 10.035 11.2365L9.82703 11.4555L9.5798 11.2206C9.82703 11.4555 9.82671 11.4558 9.82639 11.4561L9.82574 11.4568L9.82439 11.4582L9.8215 11.4612L9.81494 11.4676C9.81023 11.4722 9.80481 11.4772 9.79868 11.4826C9.7864 11.4933 9.77121 11.5056 9.75296 11.5185C9.71638 11.5445 9.66765 11.573 9.60604 11.5973C9.48 11.647 9.31356 11.6737 9.10793 11.6403C8.70721 11.5752 8.18199 11.2874 7.48657 10.5552C6.78909 9.82093 6.52214 9.27307 6.46245 8.86568C6.43207 8.65832 6.45638 8.49228 6.501 8.3669C6.52294 8.30524 6.54885 8.25607 6.57274 8.21873C6.58465 8.20012 6.59601 8.18453 6.60605 8.17184C6.61107 8.1655 6.61576 8.15988 6.62003 8.15497L6.62612 8.14813L6.6289 8.1451L6.63023 8.14368L6.63087 8.14299C6.63119 8.14266 6.63151 8.14232 6.87984 8.3782Z" fill="#90A0B7"/>
</svg>
